<svg width="1280" height="409" viewBox="0 0 1280 409" fill="none" xmlns="http://www.w3.org/2000/svg">
<g clip-path="url(#clip0_17_9)">
<path d="M1253.97 -1479.66L1277.32 -1479.74L1277.32 -1481.96L1252.13 -1481.87L1241.38 -1442.56L1230.62 -1403.26L1187.45 -1403.1L1165.75 -1481.56L1118.89 -1481.4L1103.18 -1423.95L1097.39 -1402.78L1054.19 -1402.62L1032.51 -1481.09L985.652 -1480.92L964.151 -1402.3L920.952 -1402.15L899.254 -1480.61L852.395 -1480.44L830.914 -1401.83L787.715 -1401.67L766.017 -1480.14L719.158 -1479.97L703.448 -1422.52L697.657 -1401.35L654.479 -1401.2L632.781 -1479.66L585.922 -1479.49L564.421 -1400.87L521.242 -1400.72L499.545 -1479.18L452.685 -1479.01L441.924 -1439.71L431.184 -1400.4L387.985 -1400.24L366.308 -1478.71L319.449 -1478.54L313.637 -1457.37L297.948 -1399.92L254.749 -1399.77L233.051 -1478.23L186.192 -1478.06L164.69 -1399.44L121.512 -1399.29L99.8142 -1477.75L52.9551 -1477.59L42.215 -1438.28L31.4538 -1398.97L8.0983 -1398.88L8.10386 -1394.44L31.4594 -1394.53L42.3189 -1355.29L53.1573 -1316.06L42.4172 -1276.75L31.656 -1237.4L8.30052 -1237.32L8.30608 -1232.88L31.6616 -1232.96L42.5211 -1193.73L53.3595 -1154.5L42.6194 -1115.19L31.8582 -1075.88L8.50269 -1075.79L8.50825 -1071.35L31.8638 -1071.44L42.7233 -1032.2L53.5617 -992.972L42.8216 -953.664L32.0604 -914.355L8.70485 -914.271L8.71041 -909.829L32.0659 -909.913L42.9254 -870.681L53.7638 -831.449L43.0238 -792.096L32.2626 -752.787L8.90707 -752.704L8.91263 -748.262L32.2681 -748.345L43.1277 -709.114L53.966 -669.882L43.226 -630.573L32.4647 -591.265L9.10923 -591.181L9.11479 -586.739L32.4703 -586.822L43.3298 -547.591L54.1682 -508.359L43.4281 -469.05L32.6669 -429.742L9.3114 -429.658L9.31696 -425.216L32.6725 -425.299L43.532 -386.068L54.3704 -346.792L43.6304 -307.483L32.8691 -268.174L9.51362 -268.091L9.51918 -263.648L32.8747 -263.732L43.7342 -224.5L54.5726 -185.269L43.8325 -145.96L33.0713 -106.651L9.71578 -106.568L9.72134 -102.125L33.0768 -102.209L43.9364 -62.9773L54.7748 -23.7458L44.0347 15.563L33.2735 54.872L9.91794 54.9555L9.9235 59.3977L33.279 59.3142L44.1386 98.59L54.977 137.822L44.2369 177.131L33.4757 216.439L10.1202 216.523L10.1257 220.965L33.4812 220.882L44.3408 260.113L55.1791 299.345L102.038 299.177L123.54 220.56L166.718 220.405L181.19 272.729L188.416 298.868L235.275 298.701L256.776 220.083L299.975 219.929L315.808 277.267L321.673 298.392L368.532 298.224L390.012 219.607L433.212 219.453L444.05 258.684L454.909 297.916L501.769 297.748L523.27 219.131L566.448 218.976L580.92 271.3L588.146 297.439L635.005 297.272L656.506 218.654L699.684 218.5L705.529 239.624L721.382 296.963L768.241 296.795L789.743 218.178L832.942 218.023L854.619 296.487L901.478 296.319L922.979 217.702L966.178 217.547L980.629 269.871L987.876 296.01L1034.74 295.843L1056.22 217.225L1099.41 217.071L1105.26 238.195L1121.11 295.534L1167.97 295.366L1189.47 216.749L1232.65 216.594L1243.51 255.826L1254.35 295.058L1279.55 294.967L1279.54 292.746L1256.19 292.83L1245.33 253.598L1234.49 214.367L1245.23 175.058L1255.99 135.749L1279.35 135.666L1279.34 131.223L1255.98 131.307L1245.12 92.0753L1234.29 52.7994L1245.03 13.4904L1255.79 -25.8183L1279.14 -25.9018L1279.14 -30.3441L1255.78 -30.2606L1244.92 -69.4922L1234.08 -108.724L1244.82 -148.032L1255.59 -187.341L1278.94 -187.425L1278.94 -191.867L1255.58 -191.784L1244.72 -231.015L1233.88 -270.247L1244.62 -309.555L1255.38 -348.864L1278.74 -348.948L1278.73 -353.39L1255.38 -353.307L1244.52 -392.583L1233.68 -431.814L1244.42 -471.123L1255.18 -510.432L1278.54 -510.515L1278.53 -514.957L1255.18 -514.874L1244.32 -554.105L1233.48 -593.337L1244.22 -632.646L1254.98 -671.955L1278.33 -672.038L1278.33 -676.48L1254.97 -676.397L1244.11 -715.628L1233.28 -754.86L1244.02 -794.169L1254.78 -833.522L1278.13 -833.605L1278.13 -838.048L1254.77 -837.964L1243.91 -877.196L1233.07 -916.427L1243.81 -955.736L1254.57 -995.045L1277.93 -995.128L1277.92 -999.571L1254.57 -999.487L1243.71 -1038.72L1232.87 -1077.95L1243.61 -1117.26L1254.37 -1156.57L1277.73 -1156.65L1277.72 -1161.09L1254.37 -1161.01L1243.51 -1200.24L1232.67 -1239.47L1243.41 -1278.83L1254.17 -1318.14L1277.53 -1318.22L1277.52 -1322.66L1254.16 -1322.58L1243.31 -1361.81L1232.47 -1401.04L1243.21 -1440.35L1253.97 -1479.66ZM1120.73 -1479.18L1163.91 -1479.34L1185.61 -1400.87L1164.11 -1322.26L1120.93 -1322.1L1099.23 -1400.56L1120.73 -1479.18ZM855.243 -674.968L833.545 -753.431L855.047 -832.093L898.246 -832.247L919.944 -753.74L898.442 -675.122L855.243 -674.968ZM920.146 -592.217L898.645 -513.599L855.445 -513.445L833.748 -591.908L855.249 -670.525L898.448 -670.68L920.146 -592.217ZM853.406 -672.74L831.925 -594.123L788.726 -593.968L767.028 -672.431L788.53 -751.049L831.729 -751.203L853.406 -672.74ZM786.888 -591.74L765.387 -513.123L722.209 -512.969L707.737 -565.292L700.511 -591.432L722.012 -670.049L765.191 -670.203L786.888 -591.74ZM765.185 -674.646L722.007 -674.491L700.309 -752.955L721.81 -831.617L764.988 -831.771L786.686 -753.263L765.185 -674.646ZM704.294 -729.735L720.169 -672.264L704.459 -614.812L698.668 -593.646L655.49 -593.492L633.792 -671.955L655.293 -750.573L698.471 -750.727L704.294 -729.735ZM653.652 -591.264L632.151 -512.647L588.973 -512.492L583.128 -533.617L567.275 -590.955L582.985 -648.407L588.776 -669.573L631.954 -669.727L653.652 -591.264ZM631.949 -674.17L588.77 -674.015L582.948 -695.051L567.073 -752.478L582.783 -809.93L588.574 -831.14L631.752 -831.295L653.45 -752.787L631.949 -674.17ZM586.933 -671.787L565.431 -593.17L522.253 -593.016L500.556 -671.479L522.057 -750.096L565.235 -750.251L586.933 -671.787ZM520.416 -590.788L498.914 -512.17L455.715 -512.016L444.877 -551.247L434.038 -590.479L444.778 -629.788L455.519 -669.096L498.718 -669.251L520.416 -590.788ZM498.712 -673.693L455.513 -673.539L444.675 -712.77L433.836 -752.002L444.576 -791.311L455.316 -830.664L498.515 -830.818L520.213 -752.311L498.712 -673.693ZM442.837 -710.543L453.696 -671.311L442.935 -632.002L432.195 -592.694L388.996 -592.539L367.319 -671.002L388.799 -749.62L431.998 -749.774L442.837 -710.543ZM365.476 -673.217L322.277 -673.062L300.579 -751.526L322.08 -830.187L365.279 -830.342L386.977 -751.834L365.476 -673.217ZM365.481 -668.775L387.179 -590.311L365.678 -511.694L322.479 -511.539L300.781 -590.003L322.282 -668.62L365.481 -668.775ZM365.684 -507.252L387.381 -428.788L365.88 -350.126L322.681 -349.972L300.983 -428.48L322.484 -507.097L365.684 -507.252ZM367.521 -509.479L389.001 -588.097L432.201 -588.251L443.039 -549.02L453.899 -509.788L443.137 -470.479L432.397 -431.171L389.198 -431.016L367.521 -509.479ZM444.981 -468.265L455.721 -507.573L498.92 -507.728L520.618 -429.265L499.117 -350.603L455.917 -350.448L445.079 -389.724L434.241 -428.956L444.981 -468.265ZM500.758 -509.956L522.259 -588.573L565.437 -588.728L579.909 -536.404L587.135 -510.264L565.634 -431.647L522.456 -431.493L500.758 -509.956ZM583.187 -486.839L588.978 -508.05L632.156 -508.204L653.854 -429.741L632.353 -351.079L589.175 -350.925L583.394 -371.828L567.477 -429.432L583.187 -486.839ZM633.994 -510.432L655.495 -589.05L698.673 -589.204L704.518 -568.079L720.371 -510.741L704.661 -453.29L698.87 -432.123L655.692 -431.969L633.994 -510.432ZM722.215 -508.526L765.393 -508.681L787.091 -430.217L765.589 -351.555L722.411 -351.401L700.713 -429.909L722.215 -508.526ZM767.23 -510.908L788.732 -589.526L831.931 -589.68L853.608 -511.217L832.128 -432.6L788.928 -432.445L767.23 -510.908ZM855.451 -509.003L898.65 -509.157L920.348 -430.694L898.847 -352.032L855.648 -351.877L833.95 -430.385L855.451 -509.003ZM900.467 -511.385L921.968 -590.002L965.167 -590.157L979.619 -537.833L986.865 -511.694L965.364 -433.076L922.165 -432.922L900.467 -511.385ZM921.963 -594.445L900.265 -672.908L921.766 -751.525L964.965 -751.68L986.663 -673.216L965.162 -594.599L921.963 -594.445ZM921.76 -755.967L900.063 -834.431L921.564 -913.093L964.763 -913.247L979.214 -860.923L986.461 -834.784L964.96 -756.122L921.76 -755.967ZM898.24 -836.69L855.041 -836.535L833.343 -914.998L854.844 -993.616L898.044 -993.77L919.742 -915.307L898.24 -836.69ZM853.203 -834.308L831.723 -755.646L788.524 -755.491L766.826 -833.999L788.327 -912.616L831.527 -912.771L853.203 -834.308ZM764.983 -836.213L721.805 -836.059L707.332 -888.338L700.107 -914.522L721.608 -993.14L764.786 -993.294L786.484 -914.831L764.983 -836.213ZM704.113 -891.125L719.967 -833.831L704.257 -776.38L698.466 -755.169L655.288 -755.015L633.59 -833.522L655.091 -912.14L698.269 -912.294L704.113 -891.125ZM631.746 -835.737L588.568 -835.583L582.724 -856.707L566.87 -914.046L582.601 -971.586L588.372 -992.663L631.55 -992.818L653.248 -914.354L631.746 -835.737ZM579.505 -859.494L586.731 -833.355L565.229 -754.693L522.051 -754.538L500.353 -833.002L521.855 -911.664L565.033 -911.818L579.505 -859.494ZM498.51 -835.261L455.311 -835.106L444.472 -874.338L433.634 -913.569L444.374 -952.878L455.114 -992.187L498.313 -992.341L520.011 -913.878L498.51 -835.261ZM442.635 -872.11L453.494 -832.879L442.733 -793.525L431.993 -754.217L388.794 -754.062L367.117 -832.57L388.597 -911.187L431.796 -911.342L442.635 -872.11ZM365.274 -834.784L322.074 -834.63L300.376 -913.093L321.878 -991.71L365.077 -991.865L386.775 -913.402L365.274 -834.784ZM314.392 -853.527L320.258 -832.402L314.445 -811.191L298.756 -753.74L255.557 -753.586L233.859 -832.093L255.361 -910.711L298.56 -910.865L314.392 -853.527ZM298.762 -749.298L314.637 -691.871L320.46 -670.835L314.648 -649.668L298.959 -592.217L255.759 -592.063L234.062 -670.526L255.563 -749.143L298.762 -749.298ZM298.964 -587.775L314.797 -530.436L320.662 -509.312L314.85 -488.101L299.161 -430.694L255.962 -430.54L234.264 -509.003L255.765 -587.62L298.964 -587.775ZM299.166 -426.252L315.084 -368.647L320.864 -347.744L315.052 -326.578L299.363 -269.127L256.164 -268.972L234.466 -347.435L255.967 -426.097L299.166 -426.252ZM322.687 -345.53L365.886 -345.684L387.584 -267.221L366.082 -188.603L322.883 -188.449L301.185 -266.912L322.687 -345.53ZM367.723 -347.912L389.204 -426.574L432.403 -426.728L443.241 -387.497L454.101 -348.221L443.34 -308.912L432.599 -269.603L389.4 -269.449L367.723 -347.912ZM445.183 -306.697L455.923 -346.006L499.122 -346.16L520.82 -267.697L499.319 -189.08L456.119 -188.925L445.281 -228.157L434.443 -267.389L445.183 -306.697ZM500.96 -348.388L522.461 -427.05L565.639 -427.205L587.337 -348.697L565.836 -270.079L522.658 -269.925L500.96 -348.388ZM583.389 -325.316L589.18 -346.482L632.358 -346.637L654.056 -268.174L632.555 -189.556L589.377 -189.402L583.533 -210.527L567.679 -267.865L583.389 -325.316ZM634.196 -348.865L655.698 -427.527L698.876 -427.681L704.656 -406.778L720.574 -349.173L704.863 -291.767L699.072 -270.556L655.894 -270.401L634.196 -348.865ZM722.417 -346.959L765.595 -347.113L787.293 -268.65L765.791 -190.032L722.613 -189.878L708.141 -242.202L700.916 -268.341L722.417 -346.959ZM767.433 -349.341L788.934 -428.003L832.133 -428.157L853.81 -349.65L832.33 -271.032L789.131 -270.878L767.433 -349.341ZM855.653 -347.435L898.852 -347.59L920.55 -269.126L899.049 -190.509L855.85 -190.354L834.152 -268.818L855.653 -347.435ZM900.669 -349.817L922.17 -428.479L965.37 -428.634L987.067 -350.126L965.566 -271.509L922.367 -271.354L900.669 -349.817ZM983.098 -326.745L988.89 -347.911L1032.09 -348.066L1053.79 -269.603L1032.29 -190.985L989.086 -190.831L983.242 -211.956L967.409 -269.294L983.098 -326.745ZM988.884 -352.354L983.125 -373.257L967.207 -430.861L982.896 -488.268L988.687 -509.479L1031.89 -509.633L1053.58 -431.17L1032.08 -352.508L988.884 -352.354ZM988.682 -513.921L982.838 -535.046L967.005 -592.384L982.694 -649.836L988.485 -671.002L1031.68 -671.156L1053.38 -592.693L1031.88 -514.076L988.682 -513.921ZM988.48 -675.444L982.678 -696.48L966.803 -753.907L982.492 -811.359L988.283 -832.569L1031.48 -832.724L1053.18 -754.216L1031.68 -675.599L988.48 -675.444ZM988.277 -837.012L982.433 -858.136L966.601 -915.475L982.332 -973.015L988.081 -994.092L1031.28 -994.247L1052.98 -915.784L1031.48 -837.166L988.277 -837.012ZM988.075 -998.535L982.231 -1019.66L966.399 -1077L982.13 -1134.58L987.879 -1155.62L1031.08 -1155.77L1052.78 -1077.31L1031.27 -998.689L988.075 -998.535ZM979.012 -1022.45L986.259 -996.307L964.757 -917.689L921.558 -917.535L899.86 -995.998L921.362 -1074.62L964.561 -1074.77L979.012 -1022.45ZM898.038 -998.213L854.839 -998.058L833.141 -1076.52L854.642 -1155.14L897.841 -1155.29L919.539 -1076.83L898.038 -998.213ZM853.001 -995.83L831.521 -917.213L788.322 -917.059L766.624 -995.522L788.125 -1074.14L831.324 -1074.29L853.001 -995.83ZM764.781 -997.736L721.603 -997.582L707.13 -1049.91L699.905 -1076.04L721.406 -1154.66L764.584 -1154.82L786.282 -1076.35L764.781 -997.736ZM703.911 -1052.69L719.765 -995.354L704.034 -937.77L698.263 -916.737L655.085 -916.582L633.387 -995.045L654.889 -1073.66L698.067 -1073.82L703.911 -1052.69ZM631.544 -997.26L588.366 -997.106L582.522 -1018.23L566.668 -1075.57L582.399 -1133.15L588.169 -1154.19L631.348 -1154.34L653.046 -1075.88L631.544 -997.26ZM579.303 -1021.02L586.528 -994.878L565.027 -916.26L521.849 -916.106L500.151 -994.569L521.652 -1073.19L564.83 -1073.34L579.303 -1021.02ZM498.308 -996.784L455.109 -996.629L444.27 -1035.86L433.432 -1075.09L444.172 -1114.4L454.912 -1153.71L498.111 -1153.86L519.809 -1075.4L498.308 -996.784ZM442.432 -1033.63L453.292 -994.401L442.531 -955.093L431.791 -915.784L388.591 -915.629L366.915 -994.093L388.395 -1072.71L431.594 -1072.86L442.432 -1033.63ZM365.071 -996.307L321.872 -996.153L300.174 -1074.62L321.676 -1153.23L364.875 -1153.39L386.573 -1074.92L365.071 -996.307ZM314.19 -1015.05L320.056 -993.925L314.285 -972.848L298.554 -915.308L255.355 -915.153L233.657 -993.616L255.158 -1072.23L298.358 -1072.39L314.19 -1015.05ZM231.835 -995.831L188.636 -995.677L182.792 -1016.8L166.938 -1074.14L182.69 -1131.72L188.439 -1152.76L231.638 -1152.91L253.315 -1074.45L231.835 -995.831ZM231.841 -991.389L253.517 -912.925L232.037 -834.308L188.838 -834.154L182.994 -855.278L167.14 -912.617L182.892 -970.157L188.641 -991.234L231.841 -991.389ZM232.043 -829.866L253.72 -751.358L232.239 -672.741L189.04 -672.586L183.238 -693.622L167.342 -751.049L183.052 -808.5L188.844 -829.711L232.043 -829.866ZM232.245 -668.298L253.922 -589.835L232.442 -511.218L189.242 -511.063L183.398 -532.188L167.544 -589.526L183.254 -646.977L189.046 -668.144L232.245 -668.298ZM232.447 -506.775L254.124 -428.312L232.644 -349.65L189.445 -349.496L183.664 -370.399L167.747 -428.003L183.457 -485.41L189.248 -506.621L232.447 -506.775ZM232.649 -345.208L254.326 -266.745L232.846 -188.127L189.647 -187.973L183.803 -209.097L167.949 -266.436L183.659 -323.887L189.45 -345.053L232.649 -345.208ZM232.852 -183.685L254.528 -105.222L233.048 -26.6042L189.849 -26.4498L184.005 -47.5744L168.151 -104.913L183.861 -162.364L189.652 -183.53L232.852 -183.685ZM234.668 -185.912L256.169 -264.53L299.369 -264.684L315.201 -207.346L321.067 -186.221L315.254 -165.055L299.565 -107.604L256.366 -107.449L234.668 -185.912ZM322.889 -184.007L366.088 -184.161L387.786 -105.698L366.284 -27.0806L323.085 -26.9261L301.387 -105.389L322.889 -184.007ZM367.926 -186.389L389.406 -265.006L432.605 -265.161L443.443 -225.929L454.303 -186.698L443.542 -147.389L432.802 -108.08L389.602 -107.926L367.926 -186.389ZM445.385 -145.174L456.125 -184.483L499.324 -184.638L521.022 -106.174L499.521 -27.5569L456.322 -27.4025L445.483 -66.6341L434.645 -105.866L445.385 -145.174ZM501.162 -186.865L522.663 -265.483L565.841 -265.637L580.314 -213.314L587.539 -187.174L566.038 -108.557L522.86 -108.402L501.162 -186.865ZM583.591 -163.793L589.383 -184.96L632.561 -185.114L654.259 -106.651L632.757 -28.0332L589.579 -27.8789L583.735 -49.0034L567.881 -106.342L583.591 -163.793ZM634.398 -187.342L655.9 -265.959L699.078 -266.113L704.922 -244.989L720.776 -187.65L705.066 -130.199L699.274 -109.033L656.096 -108.879L634.398 -187.342ZM722.619 -185.436L765.797 -185.59L787.495 -107.127L765.994 -28.5096L722.816 -28.3552L708.343 -80.6786L701.118 -106.818L722.619 -185.436ZM767.635 -187.818L789.136 -266.435L832.335 -266.59L854.012 -188.127L832.532 -109.509L789.333 -109.355L767.635 -187.818ZM855.855 -185.912L899.055 -186.067L920.753 -107.603L899.251 -28.986L856.052 -28.8315L834.354 -107.295L855.855 -185.912ZM900.871 -188.294L922.373 -266.912L965.572 -267.066L980.023 -214.743L987.27 -188.603L965.768 -109.986L922.569 -109.831L900.871 -188.294ZM983.3 -165.222L989.092 -186.389L1032.29 -186.543L1053.99 -108.08L1032.49 -29.4623L989.288 -29.3079L983.444 -50.4324L967.612 -107.771L983.3 -165.222ZM1034.13 -188.771L1055.61 -267.388L1098.81 -267.543L1104.65 -246.418L1120.51 -189.079L1104.8 -131.628L1099 -110.462L1055.81 -110.308L1034.13 -188.771ZM1055.6 -271.83L1033.93 -350.294L1055.41 -428.956L1098.61 -429.11L1104.39 -408.207L1120.3 -350.602L1104.59 -293.196L1098.8 -271.985L1055.6 -271.83ZM1055.4 -433.398L1033.72 -511.861L1055.2 -590.479L1098.4 -590.633L1104.25 -569.508L1120.1 -512.17L1104.39 -454.719L1098.6 -433.552L1055.4 -433.398ZM1055.2 -594.921L1033.52 -673.384L1055 -752.002L1098.2 -752.156L1104 -731.164L1119.9 -673.693L1104.19 -616.241L1098.4 -595.075L1055.2 -594.921ZM1055 -756.444L1033.32 -834.951L1054.8 -913.569L1098 -913.723L1103.84 -892.554L1119.7 -835.26L1103.99 -777.809L1098.2 -756.598L1055 -756.444ZM1054.79 -918.011L1033.12 -996.474L1054.6 -1075.09L1097.8 -1075.25L1103.64 -1054.12L1119.5 -996.783L1103.74 -939.199L1097.99 -918.166L1054.79 -918.011ZM1054.59 -1079.53L1032.92 -1158L1054.4 -1236.61L1097.6 -1236.77L1103.44 -1215.64L1119.29 -1158.31L1103.54 -1100.77L1097.79 -1079.69L1054.59 -1079.53ZM1031.07 -1160.21L987.873 -1160.06L982.029 -1181.23L966.196 -1238.52L981.885 -1295.97L987.676 -1317.18L1030.88 -1317.34L1052.57 -1238.83L1031.07 -1160.21ZM978.81 -1184.01L986.057 -1157.83L964.555 -1079.21L921.356 -1079.06L899.658 -1157.52L921.159 -1236.14L964.359 -1236.29L978.81 -1184.01ZM897.836 -1159.74L854.637 -1159.58L832.939 -1238.04L854.44 -1316.71L897.639 -1316.86L919.337 -1238.35L897.836 -1159.74ZM852.799 -1157.35L831.319 -1078.74L788.12 -1078.58L766.422 -1157.04L787.923 -1235.66L831.122 -1235.82L852.799 -1157.35ZM764.578 -1159.26L721.4 -1159.1L706.928 -1211.43L699.702 -1237.57L721.204 -1316.23L764.382 -1316.38L786.08 -1237.92L764.578 -1159.26ZM703.709 -1214.22L719.563 -1156.88L703.832 -1099.34L698.061 -1078.26L654.883 -1078.11L633.185 -1156.57L654.687 -1235.19L697.865 -1235.34L703.709 -1214.22ZM631.342 -1158.78L588.164 -1158.63L582.32 -1179.8L566.466 -1237.09L582.176 -1294.54L587.967 -1315.75L631.145 -1315.91L652.843 -1237.4L631.342 -1158.78ZM579.101 -1182.58L586.326 -1156.4L564.825 -1077.78L521.647 -1077.63L499.949 -1156.09L521.45 -1234.71L564.628 -1234.86L579.101 -1182.58ZM498.106 -1158.31L454.906 -1158.15L444.068 -1197.38L433.23 -1236.62L443.97 -1275.97L454.71 -1315.28L497.909 -1315.43L519.607 -1236.92L498.106 -1158.31ZM442.23 -1195.16L453.09 -1155.92L442.329 -1116.62L431.589 -1077.31L388.389 -1077.15L366.713 -1155.62L388.193 -1234.23L431.392 -1234.39L442.23 -1195.16ZM364.869 -1157.83L321.67 -1157.68L299.972 -1236.14L321.473 -1314.8L364.673 -1314.96L386.371 -1236.45L364.869 -1157.83ZM313.988 -1176.62L319.853 -1155.45L314.083 -1134.42L298.352 -1076.83L255.153 -1076.68L233.455 -1155.14L254.956 -1233.76L298.156 -1233.91L313.988 -1176.62ZM231.633 -1157.35L188.434 -1157.2L182.589 -1178.37L166.736 -1235.66L182.446 -1293.11L188.237 -1314.32L231.436 -1314.48L253.113 -1235.97L231.633 -1157.35ZM179.37 -1181.16L186.596 -1154.97L165.095 -1076.35L121.917 -1076.2L100.219 -1154.66L121.72 -1233.28L164.898 -1233.43L179.37 -1181.16ZM165.1 -1071.91L179.572 -1019.59L186.798 -993.449L165.297 -914.831L122.119 -914.677L100.421 -993.14L121.922 -1071.76L165.1 -1071.91ZM165.302 -910.389L179.775 -858.065L187 -831.926L165.499 -753.264L122.321 -753.109L100.623 -831.617L122.124 -910.235L165.302 -910.389ZM165.505 -748.822L187.202 -670.358L165.701 -591.741L122.523 -591.586L100.825 -670.05L122.326 -748.667L165.505 -748.822ZM165.707 -587.299L180.179 -534.975L187.405 -508.835L165.903 -430.218L122.725 -430.063L101.027 -508.527L122.529 -587.144L165.707 -587.299ZM165.909 -425.776L187.607 -347.268L166.106 -268.65L122.927 -268.496L101.23 -346.959L122.731 -425.621L165.909 -425.776ZM166.111 -264.208L180.583 -211.885L187.809 -185.745L166.308 -107.128L123.13 -106.973L101.432 -185.436L122.933 -264.054L166.111 -264.208ZM166.313 -102.685L180.786 -50.3616L188.011 -24.2221L166.51 54.3956L123.332 54.55L101.634 -23.9133L123.135 -102.531L166.313 -102.685ZM184.063 -0.796703L189.854 -22.0075L233.054 -22.1619L254.73 56.3014L233.25 134.963L190.051 135.118L184.271 114.215L168.353 56.6102L184.063 -0.796703ZM234.87 -24.3897L256.372 -103.007L299.571 -103.162L315.403 -45.823L321.269 -24.6985L315.456 -3.4877L299.767 53.9192L256.568 54.0737L234.87 -24.3897ZM323.091 -22.4838L366.29 -22.6382L387.988 55.825L366.487 134.487L323.288 134.641L301.59 56.1338L323.091 -22.4838ZM368.128 -24.8661L389.608 -103.483L432.807 -103.638L443.646 -64.4063L454.505 -25.1749L443.744 14.134L433.004 53.4429L389.805 53.5974L368.128 -24.8661ZM445.587 16.3485L456.327 -22.9601L499.526 -23.1146L521.224 55.3486L499.723 134.011L456.524 134.165L445.686 94.9333L434.847 55.6574L445.587 16.3485ZM501.364 -25.3424L522.866 -103.96L566.044 -104.114L580.516 -51.7907L587.741 -25.6512L566.24 52.9666L523.062 53.1209L501.364 -25.3424ZM583.794 -2.22577L589.585 -23.4365L632.763 -23.5909L654.461 54.8723L632.959 133.534L589.781 133.689L584.001 112.786L568.083 55.1811L583.794 -2.22577ZM634.601 -25.8187L656.102 -104.436L699.28 -104.591L705.124 -83.4658L720.978 -26.1275L705.268 31.3239L699.477 52.4903L656.299 52.6446L634.601 -25.8187ZM722.821 -23.9129L765.999 -24.0672L787.697 54.396L766.196 133.058L723.018 133.212L701.32 54.7048L722.821 -23.9129ZM767.837 -26.2951L789.338 -104.913L832.537 -105.067L854.214 -26.6039L832.734 52.0138L789.535 52.1683L767.837 -26.2951ZM856.058 -24.3892L899.257 -24.5436L920.955 53.9196L899.453 132.581L856.254 132.736L834.556 54.2284L856.058 -24.3892ZM901.073 -26.7714L922.575 -105.389L965.774 -105.543L980.225 -53.2196L987.472 -27.0803L965.971 51.5375L922.771 51.692L901.073 -26.7714ZM983.503 -3.65476L989.294 -24.8655L1032.49 -25.02L1054.19 53.4432L1032.69 132.105L989.491 132.26L983.731 111.357L967.814 53.752L983.503 -3.65476ZM1034.33 -27.2478L1055.81 -105.865L1099.01 -106.02L1104.85 -84.8949L1120.71 -27.5566L1105 29.8949L1099.21 51.0612L1056.01 51.2156L1034.33 -27.2478ZM1122.55 -25.3419L1165.73 -25.4963L1187.43 52.9669L1165.93 131.629L1122.75 131.783L1101.05 53.2757L1122.55 -25.3419ZM1122.55 -29.7843L1108.07 -82.1077L1100.85 -108.247L1122.35 -186.865L1165.53 -187.019L1187.23 -108.556L1165.72 -29.9386L1122.55 -29.7843ZM1122.34 -191.307L1107.87 -243.631L1100.65 -269.77L1122.15 -348.388L1165.33 -348.542L1187.02 -270.079L1165.52 -191.462L1122.34 -191.307ZM1122.14 -352.83L1100.44 -431.338L1121.94 -509.955L1165.12 -510.11L1186.82 -431.647L1165.32 -352.985L1122.14 -352.83ZM1121.94 -514.398L1107.47 -566.721L1100.24 -592.861L1121.74 -671.478L1164.92 -671.633L1186.62 -593.17L1165.12 -514.552L1121.94 -514.398ZM1121.74 -675.921L1100.04 -754.384L1121.54 -833.046L1164.72 -833.2L1186.42 -754.692L1164.92 -676.075L1121.74 -675.921ZM1121.53 -837.488L1107.06 -889.767L1099.84 -915.951L1121.34 -994.569L1164.52 -994.723L1186.21 -916.26L1164.71 -837.642L1121.53 -837.488ZM1121.33 -999.011L1106.86 -1051.33L1099.63 -1077.47L1121.14 -1156.09L1164.31 -1156.25L1186.01 -1077.78L1164.51 -999.165L1121.33 -999.011ZM1121.13 -1160.53L1106.66 -1212.86L1099.43 -1239L1120.93 -1317.66L1164.11 -1317.81L1185.81 -1239.31L1164.31 -1160.69L1121.13 -1160.53ZM1097.39 -1398.34L1103.19 -1377.3L1119.09 -1319.87L1103.38 -1262.42L1097.59 -1241.21L1054.39 -1241.06L1032.71 -1319.56L1054.19 -1398.18L1097.39 -1398.34ZM981.683 -1457.54L987.474 -1478.71L1030.67 -1478.86L1052.37 -1400.4L1030.87 -1321.78L987.671 -1321.62L981.869 -1342.62L965.994 -1400.09L981.683 -1457.54ZM964.156 -1397.86L985.854 -1319.4L964.353 -1240.74L921.154 -1240.58L899.456 -1319.09L920.957 -1397.71L964.156 -1397.86ZM854.238 -1478.23L897.437 -1478.38L919.135 -1399.92L897.634 -1321.3L854.435 -1321.15L832.737 -1399.61L854.238 -1478.23ZM830.92 -1397.38L852.597 -1318.92L831.117 -1240.26L787.917 -1240.1L766.219 -1318.61L787.721 -1397.23L830.92 -1397.38ZM721.002 -1477.75L764.18 -1477.91L785.877 -1399.44L764.376 -1320.83L721.198 -1320.67L699.5 -1399.14L721.002 -1477.75ZM697.662 -1396.91L703.485 -1375.87L719.36 -1318.44L703.65 -1260.99L697.859 -1239.78L654.681 -1239.63L632.983 -1318.14L654.484 -1396.75L697.662 -1396.91ZM581.974 -1456.11L587.765 -1477.28L630.943 -1477.43L652.641 -1398.97L631.14 -1320.35L587.962 -1320.2L582.139 -1341.19L566.264 -1398.66L581.974 -1456.11ZM564.426 -1396.43L586.124 -1317.97L564.623 -1239.31L521.445 -1239.15L499.747 -1317.66L521.248 -1396.28L564.426 -1396.43ZM443.768 -1437.49L454.508 -1476.8L497.707 -1476.95L519.405 -1398.49L497.903 -1319.87L454.704 -1319.72L443.866 -1358.95L433.027 -1398.18L443.768 -1437.49ZM431.19 -1395.95L442.028 -1356.72L452.888 -1317.49L442.126 -1278.18L431.386 -1238.83L388.187 -1238.68L366.51 -1317.18L387.99 -1395.8L431.19 -1395.95ZM321.271 -1476.32L364.47 -1476.48L386.168 -1398.02L364.667 -1319.4L321.468 -1319.24L299.77 -1397.71L321.271 -1476.32ZM297.953 -1395.48L313.828 -1338.01L319.651 -1317.02L313.839 -1295.8L298.15 -1238.35L254.951 -1238.2L233.253 -1316.71L254.754 -1395.32L297.953 -1395.48ZM182.244 -1454.68L188.035 -1475.85L231.234 -1476L252.911 -1397.54L231.431 -1318.92L188.231 -1318.77L182.43 -1339.76L166.533 -1397.23L182.244 -1454.68ZM164.696 -1395L186.394 -1316.54L164.892 -1237.88L121.714 -1237.72L100.016 -1316.23L121.518 -1394.85L164.696 -1395ZM44.1355 -1357.52L33.2971 -1396.75L44.0372 -1436.06L54.7984 -1475.37L97.9765 -1475.53L119.674 -1397.06L98.1731 -1318.44L54.995 -1318.29L44.1355 -1357.52ZM44.3377 -1195.95L33.4993 -1235.19L44.2393 -1274.54L55.0006 -1313.85L98.1786 -1314L119.877 -1235.5L98.3753 -1156.88L55.1972 -1156.72L44.3377 -1195.95ZM44.5399 -1034.43L33.7015 -1073.66L44.4416 -1112.97L55.2028 -1152.28L98.3809 -1152.44L120.079 -1073.97L98.5775 -995.355L55.3994 -995.2L44.5399 -1034.43ZM44.742 -872.909L33.9037 -912.14L44.6437 -951.449L55.405 -990.758L98.583 -990.912L120.281 -912.449L98.7796 -833.832L55.6016 -833.677L44.742 -872.909ZM44.9442 -711.341L34.1059 -750.573L44.8459 -789.882L55.6071 -829.235L98.7852 -829.389L120.483 -750.882L98.9818 -672.264L55.8038 -672.11L44.9442 -711.341ZM45.1464 -549.818L34.308 -589.05L45.0481 -628.359L55.8093 -667.667L98.9874 -667.822L120.685 -589.359L99.184 -510.741L56.006 -510.587L45.1464 -549.818ZM45.3486 -388.295L34.5102 -427.527L45.2503 -466.836L56.0115 -506.144L99.1896 -506.299L120.887 -427.836L99.3862 -349.174L56.2082 -349.019L45.3486 -388.295ZM45.5508 -226.728L34.7124 -265.96L45.4525 -305.268L56.2137 -344.577L99.3918 -344.731L121.09 -266.268L99.5884 -187.651L56.4103 -187.496L45.5508 -226.728ZM45.753 -65.205L34.9146 -104.437L45.6547 -143.745L56.4159 -183.054L99.594 -183.208L121.292 -104.745L99.7906 -26.1278L56.6125 -25.9735L45.753 -65.205ZM45.9552 96.3624L35.1167 57.0865L45.8568 17.7776L56.6181 -21.5311L99.7961 -21.6855L121.494 56.7777L99.9928 135.44L56.8147 135.594L45.9552 96.3624ZM100.195 296.963L57.0169 297.117L46.1573 257.885L35.319 218.654L46.059 179.345L56.8203 140.036L99.9983 139.882L121.696 218.345L100.195 296.963ZM123.534 216.117L101.836 137.654L123.337 58.9922L166.515 58.8378L188.213 137.345L166.712 215.963L123.534 216.117ZM233.452 296.486L190.253 296.641L184.409 275.516L168.555 218.178L184.265 160.726L190.057 139.56L233.256 139.406L254.933 217.869L233.452 296.486ZM256.77 215.641L235.072 137.178L256.574 58.5159L299.773 58.3614L315.69 115.966L321.471 136.869L315.659 158.035L299.97 215.487L256.77 215.641ZM366.689 296.01L323.49 296.164L301.792 217.701L323.293 139.084L366.492 138.929L388.19 217.392L366.689 296.01ZM390.007 215.165L368.33 136.702L389.81 58.0395L433.009 57.8851L443.848 97.161L454.707 136.393L443.946 175.702L433.206 215.01L390.007 215.165ZM499.925 295.534L456.726 295.688L445.888 256.456L435.049 217.225L445.789 177.916L456.529 138.607L499.729 138.453L521.427 216.916L499.925 295.534ZM523.264 214.688L501.566 136.225L523.068 57.5631L566.246 57.4088L587.944 135.916L566.442 214.534L523.264 214.688ZM633.162 295.057L589.984 295.212L584.139 274.087L568.286 216.749L583.996 159.297L589.787 138.131L632.965 137.977L654.663 216.44L633.162 295.057ZM656.501 214.212L634.803 135.749L656.304 57.0868L699.482 56.9324L705.263 77.8352L721.18 135.44L705.47 192.847L699.679 214.058L656.501 214.212ZM766.398 294.581L723.22 294.735L708.748 242.412L701.522 216.272L723.023 137.655L766.201 137.5L787.899 215.963L766.398 294.581ZM789.737 213.736L768.039 135.273L789.54 56.6105L832.74 56.456L854.416 134.964L832.936 213.581L789.737 213.736ZM899.656 294.104L856.456 294.259L834.758 215.796L856.26 137.178L899.459 137.024L921.157 215.487L899.656 294.104ZM922.973 213.259L901.276 134.796L922.777 56.1341L965.976 55.9797L987.674 134.487L966.173 213.105L922.973 213.259ZM1032.89 293.628L989.693 293.783L983.849 272.658L968.016 215.319L983.705 157.868L989.496 136.702L1032.7 136.547L1054.39 215.011L1032.89 293.628ZM1056.21 212.783L1034.53 134.32L1056.01 55.6578L1099.21 55.5034L1104.99 76.4062L1120.91 134.011L1105.2 191.418L1099.41 212.628L1056.21 212.783ZM1166.13 293.152L1122.95 293.306L1108.48 240.983L1101.25 214.843L1122.75 136.226L1165.93 136.071L1187.63 214.534L1166.13 293.152ZM1243.31 94.3029L1254.15 133.535L1243.41 172.843L1232.65 212.152L1189.47 212.306L1167.77 133.843L1189.27 55.1814L1232.45 55.027L1243.31 94.3029ZM1243.11 -67.2644L1253.94 -28.0329L1243.2 11.2759L1232.44 50.5849L1189.27 50.7392L1167.57 -27.7241L1189.07 -106.342L1232.25 -106.496L1243.11 -67.2644ZM1242.9 -228.787L1253.74 -189.556L1243 -150.247L1232.24 -110.938L1189.06 -110.784L1167.37 -189.247L1188.87 -267.865L1232.04 -268.019L1242.9 -228.787ZM1242.7 -390.355L1253.54 -351.079L1242.8 -311.77L1232.04 -272.461L1188.86 -272.307L1167.16 -350.77L1188.66 -429.432L1231.84 -429.586L1242.7 -390.355ZM1242.5 -551.878L1253.34 -512.646L1242.6 -473.337L1231.84 -434.029L1188.66 -433.874L1166.96 -512.337L1188.46 -590.955L1231.64 -591.109L1242.5 -551.878ZM1242.3 -713.401L1253.14 -674.169L1242.4 -634.86L1231.63 -595.552L1188.46 -595.397L1166.76 -673.86L1188.26 -752.478L1231.44 -752.632L1242.3 -713.401ZM1242.1 -874.968L1252.93 -835.737L1242.19 -796.383L1231.43 -757.075L1188.25 -756.92L1166.56 -835.428L1188.06 -914.045L1231.24 -914.2L1242.1 -874.968ZM1241.89 -1036.49L1252.73 -997.26L1241.99 -957.951L1231.23 -918.642L1188.05 -918.488L1166.35 -996.951L1187.86 -1075.57L1231.03 -1075.72L1241.89 -1036.49ZM1241.69 -1198.01L1252.53 -1158.78L1241.79 -1119.47L1231.03 -1080.16L1187.85 -1080.01L1166.15 -1158.47L1187.65 -1237.09L1230.83 -1237.25L1241.69 -1198.01ZM1241.49 -1359.58L1252.33 -1320.35L1241.59 -1281.04L1230.83 -1241.69L1187.65 -1241.53L1165.95 -1320.04L1187.45 -1398.66L1230.63 -1398.81L1241.49 -1359.58Z" fill="url(#paint0_linear_17_9)"/>
</g>
<defs>
<linearGradient id="paint0_linear_17_9" x1="642.672" y1="308.176" x2="662.029" y2="-132.227" gradientUnits="userSpaceOnUse">
<stop stop-opacity="0.15"/>
<stop offset="1" stop-color="white"/>
</linearGradient>
<clipPath id="clip0_17_9">
<rect width="1280" height="409" fill="white"/>
</clipPath>
</defs>
</svg>
