<svg width="1280" height="397" viewBox="0 0 1280 397" fill="none" xmlns="http://www.w3.org/2000/svg">
<g clip-path="url(#clip0_25_18)">
<path d="M1306.79 -1475.82L1344.01 -1475.89L1344 -1478L1303.85 -1477.91L1286.74 -1440.66L1269.59 -1403.4L1200.79 -1403.25L1166.22 -1477.62L1091.55 -1477.46L1066.52 -1423.01L1057.29 -1402.95L988.455 -1402.8L953.914 -1477.17L879.248 -1477.01L844.987 -1402.5L776.152 -1402.35L741.578 -1476.72L666.911 -1476.56L632.684 -1402.05L563.849 -1401.9L529.275 -1476.27L454.609 -1476.11L429.576 -1421.66L420.348 -1401.59L351.547 -1401.45L316.973 -1475.82L242.306 -1475.66L208.045 -1401.14L139.244 -1401L104.67 -1475.36L30.0033 -1475.21L12.8561 -1437.95L-4.25748 -1400.69L-73.0923 -1400.55L-107.633 -1474.91L-182.299 -1474.75L-191.561 -1454.69L-216.56 -1400.24L-285.395 -1400.09L-319.969 -1474.46L-394.636 -1474.3L-428.897 -1399.79L-497.698 -1399.64L-532.272 -1474.01L-606.938 -1473.85L-624.052 -1436.59L-641.199 -1399.34L-678.415 -1399.26L-678.406 -1395.05L-641.19 -1395.13L-623.886 -1357.94L-606.616 -1320.76L-623.73 -1283.5L-640.877 -1246.2L-678.092 -1246.12L-678.083 -1241.91L-640.868 -1241.99L-623.564 -1204.81L-606.294 -1167.63L-623.408 -1130.37L-640.555 -1093.11L-677.77 -1093.03L-677.761 -1088.82L-640.546 -1088.9L-623.242 -1051.72L-605.972 -1014.53L-623.085 -977.276L-640.233 -940.019L-677.448 -939.94L-677.439 -935.729L-640.224 -935.808L-622.92 -898.625L-605.65 -861.441L-622.763 -824.142L-639.91 -786.885L-677.126 -786.806L-677.117 -782.595L-639.902 -782.674L-622.598 -745.49L-605.328 -708.307L-622.441 -671.05L-639.588 -633.793L-676.804 -633.714L-676.795 -629.503L-639.579 -629.582L-622.276 -592.398L-605.005 -555.215L-622.119 -517.958L-639.266 -480.701L-676.482 -480.621L-676.473 -476.411L-639.257 -476.49L-621.953 -439.306L-604.683 -402.08L-621.797 -364.823L-638.944 -327.566L-676.159 -327.487L-676.15 -323.277L-638.935 -323.356L-621.631 -286.172L-604.361 -248.988L-621.475 -211.731L-638.622 -174.474L-675.837 -174.395L-675.828 -170.185L-638.613 -170.264L-621.309 -133.08L-604.039 -95.8963L-621.152 -58.6393L-638.3 -21.3821L-675.515 -21.3029L-675.506 -17.0926L-638.291 -17.1717L-620.987 20.054L-603.717 57.2381L-620.83 94.4951L-637.978 131.752L-675.193 131.831L-675.184 136.042L-637.969 135.962L-620.665 173.146L-603.395 210.33L-528.728 210.171L-494.467 135.657L-425.666 135.511L-402.605 185.103L-391.092 209.879L-316.425 209.72L-282.164 135.206L-213.33 135.059L-188.102 189.405L-178.755 209.427L-104.089 209.268L-69.8618 134.754L-1.02693 134.608L16.2433 171.792L33.5472 208.976L108.214 208.817L142.475 134.303L211.276 134.157L234.336 183.749L245.85 208.524L320.516 208.365L354.777 133.851L423.578 133.705L432.891 153.727L458.152 208.073L532.819 207.914L567.08 133.4L635.915 133.254L670.455 207.621L745.122 207.462L779.383 132.948L848.217 132.802L871.244 182.394L882.792 207.17L957.458 207.011L991.685 132.497L1060.52 132.351L1069.83 152.373L1095.09 206.718L1169.76 206.559L1204.02 132.045L1272.82 131.899L1290.13 169.083L1307.4 206.267L1347.55 206.181L1347.54 204.076L1310.33 204.155L1293.02 166.971L1275.75 129.788L1292.86 92.5307L1310.01 55.2737L1347.23 55.1945L1347.22 50.984L1310 51.0632L1292.7 13.8794L1275.43 -23.3465L1292.54 -60.6036L1309.69 -97.8606L1346.91 -97.9397L1346.9 -102.15L1309.68 -102.071L1292.38 -139.255L1275.11 -176.439L1292.22 -213.696L1309.37 -250.953L1346.58 -251.032L1346.57 -255.242L1309.36 -255.163L1292.05 -292.347L1274.78 -329.531L1291.9 -366.788L1309.05 -404.045L1346.26 -404.124L1346.25 -408.334L1309.04 -408.255L1291.73 -445.481L1274.46 -482.665L1291.58 -519.922L1308.72 -557.179L1345.94 -557.258L1345.93 -561.469L1308.71 -561.389L1291.41 -598.573L1274.14 -635.757L1291.25 -673.014L1308.4 -710.271L1345.62 -710.35L1345.61 -714.561L1308.39 -714.481L1291.09 -751.665L1273.82 -788.849L1290.93 -826.106L1308.08 -863.405L1345.29 -863.484L1345.29 -867.695L1308.07 -867.616L1290.77 -904.799L1273.5 -941.983L1290.61 -979.24L1307.76 -1016.5L1344.97 -1016.58L1344.96 -1020.79L1307.75 -1020.71L1290.44 -1057.89L1273.17 -1095.08L1290.29 -1132.33L1307.43 -1169.59L1344.65 -1169.67L1344.64 -1173.88L1307.43 -1173.8L1290.12 -1210.98L1272.85 -1248.17L1289.96 -1285.47L1307.11 -1322.72L1344.33 -1322.8L1344.32 -1327.01L1307.1 -1326.93L1289.8 -1364.12L1272.53 -1401.3L1289.64 -1438.56L1306.79 -1475.82ZM1094.49 -1475.36L1163.29 -1475.51L1197.86 -1401.14L1163.6 -1326.63L1094.8 -1326.48L1060.23 -1400.85L1094.49 -1475.36ZM671.451 -713.127L636.876 -787.495L671.137 -862.051L739.972 -862.197L774.546 -787.787L740.285 -713.273L671.451 -713.127ZM774.868 -634.695L740.607 -560.181L671.773 -560.035L637.199 -634.403L671.459 -708.916L740.294 -709.063L774.868 -634.695ZM668.522 -711.015L634.295 -636.502L565.46 -636.355L530.886 -710.723L565.147 -785.237L633.982 -785.383L668.522 -711.015ZM562.532 -634.244L528.271 -559.73L459.47 -559.583L436.409 -609.176L424.896 -633.951L459.157 -708.465L527.958 -708.611L562.532 -634.244ZM527.949 -712.822L459.148 -712.675L424.574 -787.043L458.834 -861.599L527.636 -861.746L562.21 -787.336L527.949 -712.822ZM430.924 -765.036L456.219 -710.564L431.187 -656.111L421.959 -636.05L353.158 -635.904L318.583 -710.271L352.844 -784.785L421.645 -784.932L430.924 -765.036ZM350.229 -633.792L315.968 -559.278L247.167 -559.132L237.855 -579.154L212.593 -633.5L237.626 -687.952L246.854 -708.014L315.655 -708.16L350.229 -633.792ZM315.646 -712.37L246.845 -712.224L237.567 -732.162L212.271 -786.592L237.304 -841.044L246.532 -861.148L315.333 -861.294L349.907 -786.884L315.646 -712.37ZM243.917 -710.113L209.656 -635.599L140.855 -635.452L106.281 -709.82L140.542 -784.334L209.343 -784.48L243.917 -710.113ZM137.927 -633.341L103.666 -558.827L34.8309 -558.68L17.5607 -595.864L0.290504 -633.048L17.4041 -670.305L34.5176 -707.562L103.352 -707.708L137.927 -633.341ZM103.344 -711.919L34.5087 -711.772L17.2386 -748.956L-0.0316295 -786.14L17.082 -823.397L34.1954 -860.696L103.03 -860.843L137.604 -786.433L103.344 -711.919ZM14.3103 -746.845L31.6142 -709.661L14.4669 -672.404L-2.64664 -635.147L-71.4815 -635.001L-106.022 -709.368L-71.7948 -783.882L-2.95991 -784.029L14.3103 -746.845ZM-108.959 -711.467L-177.794 -711.321L-212.368 -785.689L-178.107 -860.245L-109.272 -860.391L-74.6982 -785.981L-108.959 -711.467ZM-108.95 -707.257L-74.3761 -632.889L-108.637 -558.375L-177.472 -558.229L-212.046 -632.597L-177.785 -707.111L-108.95 -707.257ZM-108.628 -554.165L-74.0539 -479.797L-108.315 -405.241L-177.15 -405.095L-211.724 -479.505L-177.463 -554.019L-108.628 -554.165ZM-105.7 -556.276L-71.4726 -630.79L-2.63778 -630.937L14.6324 -593.753L31.9363 -556.569L14.7891 -519.312L-2.3245 -482.055L-71.1594 -481.909L-105.7 -556.276ZM17.7262 -517.213L34.8397 -554.47L103.675 -554.616L138.249 -480.249L103.988 -405.693L35.1531 -405.546L17.8829 -442.772L0.612638 -479.956L17.7262 -517.213ZM106.603 -556.728L140.864 -631.242L209.665 -631.388L232.726 -581.796L244.239 -557.021L209.978 -482.507L141.177 -482.36L106.603 -556.728ZM237.948 -534.818L247.176 -554.922L315.977 -555.068L350.551 -480.7L316.291 -406.144L247.489 -405.998L238.279 -425.81L212.915 -480.408L237.948 -534.818ZM318.906 -557.179L353.166 -631.693L421.968 -631.84L431.28 -611.818L456.542 -557.472L431.509 -503.019L422.281 -482.958L353.48 -482.812L318.906 -557.179ZM459.479 -555.373L528.28 -555.519L562.854 -481.152L528.593 -406.596L459.792 -406.449L425.218 -480.859L459.479 -555.373ZM531.208 -557.631L565.469 -632.145L634.304 -632.291L668.844 -557.923L634.617 -483.41L565.782 -483.263L531.208 -557.631ZM671.782 -555.824L740.616 -555.971L775.19 -481.603L740.93 -407.047L672.095 -406.901L637.521 -481.31L671.782 -555.824ZM743.511 -558.082L777.772 -632.596L846.607 -632.743L869.634 -583.15L881.181 -558.375L846.92 -483.861L778.085 -483.715L743.511 -558.082ZM777.763 -636.807L743.189 -711.174L777.45 -785.688L846.285 -785.835L880.859 -711.467L846.598 -636.953L777.763 -636.807ZM777.441 -789.899L742.867 -864.266L777.127 -938.823L845.962 -938.969L868.989 -889.376L880.536 -864.601L846.276 -790.045L777.441 -789.899ZM739.963 -866.408L671.128 -866.261L636.554 -940.629L670.815 -1015.14L739.65 -1015.29L774.224 -940.922L739.963 -866.408ZM668.2 -864.15L633.973 -789.594L565.138 -789.447L530.564 -863.857L564.825 -938.371L633.66 -938.517L668.2 -864.15ZM527.627 -865.956L458.826 -865.81L435.765 -915.36L424.252 -940.177L458.512 -1014.69L527.313 -1014.84L561.887 -940.47L527.627 -865.956ZM430.636 -918.002L455.897 -863.698L430.865 -809.246L421.637 -789.142L352.835 -788.996L318.261 -863.406L352.522 -937.92L421.323 -938.066L430.636 -918.002ZM315.324 -865.505L246.523 -865.358L237.211 -885.38L211.949 -939.726L237.015 -994.263L246.21 -1014.24L315.011 -1014.39L349.585 -940.019L315.324 -865.505ZM232.081 -888.022L243.595 -863.247L209.334 -788.691L140.533 -788.544L105.959 -862.912L140.219 -937.468L209.021 -937.614L232.081 -888.022ZM103.021 -865.053L34.1865 -864.907L16.9164 -902.091L-0.353852 -939.274L16.7597 -976.531L33.8733 -1013.79L102.708 -1013.93L137.282 -939.567L103.021 -865.053ZM13.9881 -899.979L31.292 -862.795L14.1448 -825.496L-2.96877 -788.239L-71.8036 -788.093L-106.344 -862.503L-72.117 -937.017L-3.28213 -937.163L13.9881 -899.979ZM-109.281 -864.602L-178.116 -864.455L-212.69 -938.823L-178.429 -1013.34L-109.595 -1013.48L-75.0204 -939.116L-109.281 -864.602ZM-190.357 -882.366L-181.011 -862.344L-190.272 -842.24L-215.271 -787.788L-284.106 -787.641L-318.68 -862.051L-284.42 -936.565L-215.585 -936.712L-190.357 -882.366ZM-215.263 -783.577L-189.967 -729.148L-180.688 -709.21L-189.95 -689.148L-214.949 -634.696L-283.784 -634.549L-318.358 -708.917L-284.097 -783.431L-215.263 -783.577ZM-214.94 -630.485L-189.712 -576.14L-180.366 -556.118L-189.628 -536.014L-214.627 -481.604L-283.462 -481.457L-318.036 -555.825L-283.775 -630.339L-214.94 -630.485ZM-214.618 -477.393L-189.255 -422.795L-180.044 -402.983L-189.306 -382.922L-214.305 -328.469L-283.14 -328.323L-317.714 -402.691L-283.453 -477.247L-214.618 -477.393ZM-177.141 -400.884L-108.306 -401.031L-73.7317 -326.663L-107.993 -252.149L-176.827 -252.003L-211.402 -326.37L-177.141 -400.884ZM-105.378 -403.142L-71.1505 -477.698L-2.31564 -477.845L14.9545 -440.661L32.2585 -403.435L15.1113 -366.178L-2.00228 -328.921L-70.8371 -328.774L-105.378 -403.142ZM18.0485 -364.079L35.162 -401.336L103.997 -401.482L138.571 -327.115L104.31 -252.601L35.4752 -252.454L18.2051 -289.638L0.93486 -326.822L18.0485 -364.079ZM106.925 -403.594L141.186 -478.15L209.987 -478.296L244.561 -403.886L210.3 -329.372L141.499 -329.226L106.925 -403.594ZM238.27 -381.726L247.498 -401.787L316.299 -401.934L350.874 -327.566L316.613 -253.052L247.812 -252.906L238.499 -272.928L213.238 -327.273L238.27 -381.726ZM319.228 -404.045L353.489 -478.601L422.29 -478.748L431.5 -458.936L456.864 -404.338L431.831 -349.927L422.603 -329.824L353.802 -329.677L319.228 -404.045ZM459.801 -402.239L528.602 -402.385L563.176 -328.017L528.915 -253.503L460.114 -253.357L437.054 -302.95L425.54 -327.725L459.801 -402.239ZM531.531 -404.497L565.791 -479.053L634.626 -479.199L669.167 -404.789L634.939 -330.275L566.105 -330.129L531.531 -404.497ZM672.104 -402.69L740.939 -402.837L775.513 -328.469L741.252 -253.955L672.417 -253.809L637.843 -328.176L672.104 -402.69ZM743.833 -404.948L778.094 -479.504L846.929 -479.651L881.503 -405.241L847.242 -330.727L778.407 -330.58L743.833 -404.948ZM875.178 -383.08L884.406 -403.142L953.241 -403.288L987.815 -328.92L953.555 -254.406L884.72 -254.26L875.407 -274.282L850.179 -328.628L875.178 -383.08ZM884.397 -407.352L875.22 -427.164L849.857 -481.762L874.856 -536.172L884.084 -556.276L952.919 -556.422L987.493 -482.055L953.232 -407.499L884.397 -407.352ZM884.075 -560.486L874.763 -580.508L849.535 -634.854L874.534 -689.307L883.762 -709.368L952.597 -709.514L987.171 -635.147L952.91 -560.633L884.075 -560.486ZM883.753 -713.578L874.508 -733.516L849.213 -787.946L874.212 -842.399L883.44 -862.502L952.275 -862.649L986.849 -788.239L952.588 -713.725L883.753 -713.578ZM883.431 -866.713L874.119 -886.735L848.891 -941.08L873.957 -995.617L883.118 -1015.59L951.953 -1015.74L986.527 -941.373L952.266 -866.859L883.431 -866.713ZM883.109 -1019.8L873.796 -1039.83L848.568 -1094.17L873.635 -1148.75L882.795 -1168.69L951.63 -1168.83L986.204 -1094.47L951.944 -1019.95L883.109 -1019.8ZM868.667 -1042.47L880.214 -1017.69L845.953 -943.179L777.119 -943.033L742.544 -1017.4L776.805 -1091.91L845.64 -1092.06L868.667 -1042.47ZM739.641 -1019.5L670.806 -1019.35L636.232 -1093.72L670.493 -1168.23L739.328 -1168.38L773.902 -1094.01L739.641 -1019.5ZM667.878 -1017.24L633.651 -942.728L564.816 -942.582L530.242 -1016.95L564.503 -1091.46L633.337 -1091.61L667.878 -1017.24ZM527.305 -1019.05L458.503 -1018.9L435.443 -1068.49L423.929 -1093.27L458.19 -1167.78L526.991 -1167.93L561.565 -1093.56L527.305 -1019.05ZM430.313 -1071.14L455.575 -1016.79L430.509 -962.211L421.314 -942.276L352.513 -942.13L317.939 -1016.5L352.2 -1091.01L421.001 -1091.16L430.313 -1071.14ZM315.002 -1018.6L246.201 -1018.45L236.888 -1038.47L211.627 -1092.82L236.693 -1147.4L245.887 -1167.33L314.689 -1167.48L349.263 -1093.11L315.002 -1018.6ZM231.759 -1041.11L243.272 -1016.34L209.012 -941.825L140.211 -941.679L105.636 -1016.05L139.897 -1090.56L208.698 -1090.71L231.759 -1041.11ZM102.699 -1018.15L33.8644 -1018L16.5943 -1055.18L-0.675986 -1092.37L16.4376 -1129.62L33.5511 -1166.88L102.386 -1167.03L136.96 -1092.66L102.699 -1018.15ZM13.6659 -1053.07L30.9698 -1015.89L13.8226 -978.63L-3.29099 -941.373L-72.1258 -941.227L-106.666 -1015.59L-72.4391 -1090.11L-3.60427 -1090.26L13.6659 -1053.07ZM-109.603 -1017.69L-178.438 -1017.55L-213.012 -1091.91L-178.752 -1166.43L-109.917 -1166.58L-75.3425 -1092.21L-109.603 -1017.69ZM-190.679 -1035.46L-181.333 -1015.44L-190.527 -995.459L-215.594 -940.922L-284.429 -940.776L-319.003 -1015.14L-284.742 -1089.66L-215.907 -1089.8L-190.679 -1035.46ZM-321.906 -1017.24L-390.741 -1017.1L-400.053 -1037.12L-425.315 -1091.46L-400.215 -1146.04L-391.054 -1165.98L-322.219 -1166.12L-287.679 -1091.76L-321.906 -1017.24ZM-321.897 -1013.03L-287.357 -938.664L-321.584 -864.15L-390.419 -864.004L-399.731 -884.026L-424.993 -938.371L-399.893 -992.908L-390.732 -1012.89L-321.897 -1013.03ZM-321.575 -859.94L-287.035 -785.53L-321.262 -711.016L-390.097 -710.87L-399.341 -730.808L-424.671 -785.237L-399.638 -839.69L-390.41 -859.793L-321.575 -859.94ZM-321.253 -706.805L-286.712 -632.438L-320.94 -557.924L-389.774 -557.778L-399.087 -577.8L-424.349 -632.145L-399.316 -686.598L-390.088 -706.659L-321.253 -706.805ZM-320.931 -553.713L-286.39 -479.346L-320.617 -404.79L-389.452 -404.643L-398.663 -424.455L-424.026 -479.053L-398.993 -533.463L-389.766 -553.567L-320.931 -553.713ZM-320.608 -400.579L-286.068 -326.212L-320.295 -251.698L-389.13 -251.551L-398.442 -271.573L-423.704 -325.919L-398.671 -380.371L-389.443 -400.433L-320.608 -400.579ZM-320.286 -247.487L-285.746 -173.119L-319.973 -98.6055L-388.808 -98.4592L-398.12 -118.481L-423.382 -172.827L-398.349 -227.279L-389.121 -247.341L-320.286 -247.487ZM-317.392 -249.598L-283.131 -324.113L-214.296 -324.259L-189.068 -269.913L-179.722 -249.891L-188.984 -229.83L-213.983 -175.377L-282.818 -175.231L-317.392 -249.598ZM-176.819 -247.792L-107.984 -247.939L-73.4096 -173.571L-107.67 -99.057L-176.505 -98.9106L-211.079 -173.278L-176.819 -247.792ZM-105.055 -250.05L-70.8283 -324.564L-1.99342 -324.71L15.2768 -287.526L32.5807 -250.343L15.4334 -213.086L-1.68015 -175.829L-70.515 -175.682L-105.055 -250.05ZM18.3706 -210.987L35.4841 -248.244L104.319 -248.39L138.893 -174.022L104.632 -99.5085L35.7974 -99.3621L18.5272 -136.546L1.25699 -173.73L18.3706 -210.987ZM107.247 -250.502L141.508 -325.016L210.309 -325.162L233.37 -275.569L244.883 -250.794L210.623 -176.28L141.821 -176.134L107.247 -250.502ZM238.592 -228.634L247.82 -248.695L316.622 -248.842L351.196 -174.474L316.935 -99.9599L248.134 -99.8136L238.821 -119.836L213.56 -174.181L238.592 -228.634ZM319.55 -250.953L353.811 -325.467L422.612 -325.613L431.924 -305.591L457.186 -251.246L432.153 -196.793L422.925 -176.732L354.124 -176.585L319.55 -250.953ZM460.123 -249.147L528.924 -249.293L563.498 -174.925L529.238 -100.411L460.436 -100.265L437.376 -149.857L425.862 -174.633L460.123 -249.147ZM531.853 -251.404L566.113 -325.918L634.948 -326.065L669.489 -251.697L635.262 -177.183L566.427 -177.037L531.853 -251.404ZM672.426 -249.598L741.261 -249.745L775.835 -175.377L741.574 -100.863L672.739 -100.717L638.165 -175.084L672.426 -249.598ZM744.155 -251.856L778.416 -326.37L847.251 -326.516L870.278 -276.924L881.825 -252.149L847.564 -177.635L778.729 -177.488L744.155 -251.856ZM875.5 -229.988L884.728 -250.05L953.563 -250.196L988.137 -175.828L953.877 -101.314L885.042 -101.168L875.729 -121.19L850.501 -175.536L875.5 -229.988ZM956.492 -252.307L990.719 -326.821L1059.55 -326.968L1068.87 -306.946L1094.13 -252.6L1069.09 -198.148L1059.87 -178.086L991.032 -177.94L956.492 -252.307ZM990.71 -331.032L956.17 -405.4L990.397 -479.956L1059.23 -480.102L1068.44 -460.29L1093.81 -405.692L1068.77 -351.282L1059.54 -331.178L990.71 -331.032ZM990.388 -484.166L955.847 -558.534L990.074 -633.048L1058.91 -633.194L1068.22 -613.172L1093.48 -558.826L1068.45 -504.374L1059.22 -484.312L990.388 -484.166ZM990.066 -637.258L955.525 -711.626L989.752 -786.14L1058.59 -786.286L1067.83 -766.39L1093.16 -711.918L1068.13 -657.466L1058.9 -637.405L990.066 -637.258ZM989.743 -790.35L955.203 -864.76L989.43 -939.274L1058.27 -939.42L1067.58 -919.356L1092.84 -865.053L1067.81 -810.6L1058.58 -790.497L989.743 -790.35ZM989.421 -943.484L954.881 -1017.85L989.108 -1092.37L1057.94 -1092.51L1067.26 -1072.49L1092.52 -1018.14L1067.42 -963.566L1058.26 -943.631L989.421 -943.484ZM989.099 -1096.58L954.559 -1170.94L988.786 -1245.46L1057.62 -1245.6L1066.93 -1225.58L1092.19 -1171.24L1067.09 -1116.7L1057.93 -1096.72L989.099 -1096.58ZM951.622 -1173.04L882.787 -1172.9L873.474 -1192.96L848.246 -1247.26L873.245 -1301.72L882.473 -1321.82L951.308 -1321.97L985.882 -1247.56L951.622 -1173.04ZM868.345 -1195.6L879.892 -1170.79L845.631 -1096.27L776.796 -1096.13L742.222 -1170.49L776.483 -1245.01L845.318 -1245.15L868.345 -1195.6ZM739.319 -1172.59L670.484 -1172.45L635.91 -1246.81L670.171 -1321.37L739.005 -1321.52L773.58 -1247.11L739.319 -1172.59ZM667.556 -1170.33L633.329 -1095.82L564.494 -1095.67L529.92 -1170.04L564.18 -1244.56L633.015 -1244.7L667.556 -1170.33ZM526.982 -1172.14L458.181 -1171.99L435.121 -1221.59L423.607 -1246.36L457.868 -1320.92L526.669 -1321.06L561.243 -1246.7L526.982 -1172.14ZM429.991 -1224.23L455.253 -1169.88L430.187 -1115.35L420.992 -1095.37L352.191 -1095.22L317.617 -1169.59L351.878 -1244.1L420.679 -1244.25L429.991 -1224.23ZM314.68 -1171.69L245.879 -1171.54L236.566 -1191.61L211.305 -1245.91L236.337 -1300.36L245.565 -1320.47L314.366 -1320.61L348.941 -1246.2L314.68 -1171.69ZM231.437 -1194.25L242.95 -1169.43L208.69 -1094.92L139.888 -1094.77L105.314 -1169.14L139.575 -1243.65L208.376 -1243.8L231.437 -1194.25ZM102.377 -1171.24L33.5423 -1171.09L16.2721 -1208.27L-0.998119 -1245.46L16.1154 -1282.76L33.2289 -1320.01L102.064 -1320.16L136.638 -1245.75L102.377 -1171.24ZM13.3438 -1206.16L30.6477 -1168.98L13.5004 -1131.72L-3.61313 -1094.47L-72.448 -1094.32L-106.988 -1168.69L-72.7613 -1243.2L-3.9264 -1243.35L13.3438 -1206.16ZM-109.926 -1170.79L-178.76 -1170.64L-213.334 -1245.01L-179.074 -1319.56L-110.239 -1319.71L-75.6647 -1245.3L-109.926 -1170.79ZM-191.001 -1188.59L-181.655 -1168.53L-190.85 -1148.59L-215.916 -1094.01L-284.751 -1093.87L-319.325 -1168.24L-285.064 -1242.75L-216.229 -1242.9L-191.001 -1188.59ZM-322.228 -1170.33L-391.063 -1170.19L-400.375 -1190.25L-425.637 -1244.56L-400.604 -1299.01L-391.376 -1319.11L-322.542 -1319.26L-288.001 -1244.85L-322.228 -1170.33ZM-405.505 -1192.89L-393.991 -1168.08L-428.252 -1093.56L-497.053 -1093.42L-531.627 -1167.78L-497.367 -1242.3L-428.565 -1242.44L-405.505 -1192.89ZM-428.243 -1089.35L-405.183 -1039.76L-393.669 -1014.98L-427.93 -940.47L-496.731 -940.324L-531.305 -1014.69L-497.044 -1089.21L-428.243 -1089.35ZM-427.921 -936.26L-404.861 -886.668L-393.347 -861.892L-427.608 -787.336L-496.409 -787.19L-530.983 -861.6L-496.722 -936.114L-427.921 -936.26ZM-427.599 -783.126L-393.025 -708.758L-427.286 -634.244L-496.087 -634.098L-530.661 -708.465L-496.4 -782.979L-427.599 -783.126ZM-427.277 -630.034L-404.216 -580.441L-392.703 -555.666L-426.964 -481.152L-495.765 -481.006L-530.339 -555.373L-496.078 -629.887L-427.277 -630.034ZM-426.955 -476.942L-392.381 -402.532L-426.641 -328.018L-495.442 -327.872L-530.017 -402.239L-495.756 -476.795L-426.955 -476.942ZM-426.632 -323.807L-403.572 -274.215L-392.058 -249.44L-426.319 -174.926L-495.12 -174.779L-529.694 -249.147L-495.434 -323.661L-426.632 -323.807ZM-426.31 -170.715L-403.25 -121.123L-391.736 -96.3478L-425.997 -21.8335L-494.798 -21.6872L-529.372 -96.0551L-495.112 -170.569L-426.31 -170.715ZM-398.027 -74.145L-388.799 -94.2487L-319.964 -94.3951L-285.424 -20.0273L-319.651 54.5287L-388.486 54.6751L-397.696 34.8633L-423.06 -19.7346L-398.027 -74.145ZM-317.07 -96.5065L-282.809 -171.02L-213.974 -171.167L-188.746 -116.821L-179.4 -96.7993L-188.661 -76.6956L-213.661 -22.2851L-282.496 -22.1387L-317.07 -96.5065ZM-176.496 -94.7001L-107.662 -94.8465L-73.0874 -20.4788L-107.348 54.0772L-176.183 54.2236L-210.757 -20.1861L-176.496 -94.7001ZM-104.733 -96.9581L-70.5061 -171.472L-1.67129 -171.618L15.5989 -134.434L32.9028 -97.2508L15.7555 -59.9937L-1.35801 -22.7365L-70.1929 -22.5902L-104.733 -96.9581ZM18.6927 -57.8948L35.8062 -95.1516L104.641 -95.298L139.215 -20.9303L104.954 53.6258L36.1196 53.7721L18.8495 16.5882L1.57913 -20.6376L18.6927 -57.8948ZM107.569 -97.4095L141.83 -171.923L210.631 -172.07L233.692 -122.477L245.205 -97.7022L210.945 -23.188L142.143 -23.0417L107.569 -97.4095ZM238.915 -75.4995L248.143 -95.6032L316.944 -95.7495L351.518 -21.3818L317.257 53.1743L248.456 53.3206L239.245 33.5088L213.882 -21.0891L238.915 -75.4995ZM319.872 -97.861L354.133 -172.375L422.934 -172.521L432.246 -152.499L457.508 -98.1537L432.475 -43.701L423.247 -23.6395L354.446 -23.4932L319.872 -97.861ZM460.445 -96.0546L529.246 -96.2009L563.82 -21.8332L529.56 52.7228L460.759 52.8691L426.185 -21.5405L460.445 -96.0546ZM532.175 -98.3125L566.436 -172.826L635.27 -172.973L669.811 -98.6052L635.584 -24.091L566.749 -23.9446L532.175 -98.3125ZM672.748 -96.5061L741.583 -96.6525L776.157 -22.2848L741.896 52.2713L673.061 52.4177L638.487 -21.992L672.748 -96.5061ZM744.477 -98.7639L778.738 -173.278L847.573 -173.424L870.6 -123.832L882.147 -99.0567L847.886 -24.5425L779.052 -24.3961L744.477 -98.7639ZM875.823 -76.8539L885.051 -96.9576L953.886 -97.1039L988.46 -22.7362L954.199 51.8198L885.364 51.9662L876.187 32.1544L850.824 -22.4435L875.823 -76.8539ZM956.814 -99.2155L991.041 -173.729L1059.88 -173.876L1069.19 -153.854L1094.45 -99.5082L1069.42 -45.0555L1060.19 -24.9939L991.354 -24.8476L956.814 -99.2155ZM1097.39 -97.4091L1166.19 -97.5554L1200.76 -23.1877L1166.5 51.3683L1097.7 51.5147L1063.13 -22.895L1097.39 -97.4091ZM1097.38 -101.62L1074.32 -151.212L1062.8 -175.987L1097.06 -250.501L1165.87 -250.648L1200.44 -176.28L1166.18 -101.766L1097.38 -101.62ZM1097.06 -254.712L1074 -304.304L1062.48 -329.079L1096.74 -403.593L1165.54 -403.74L1200.12 -329.372L1165.86 -254.858L1097.06 -254.712ZM1096.73 -407.804L1062.16 -482.213L1096.42 -556.727L1165.22 -556.874L1199.8 -482.506L1165.54 -407.95L1096.73 -407.804ZM1096.41 -560.938L1073.35 -610.53L1061.84 -635.306L1096.1 -709.819L1164.9 -709.966L1199.47 -635.598L1165.21 -561.084L1096.41 -560.938ZM1096.09 -714.03L1061.52 -788.398L1095.78 -862.954L1164.58 -863.1L1199.15 -788.69L1164.89 -714.176L1096.09 -714.03ZM1095.77 -867.164L1072.71 -916.715L1061.19 -941.532L1095.45 -1016.05L1164.26 -1016.19L1198.83 -941.825L1164.57 -867.31L1095.77 -867.164ZM1095.45 -1020.26L1072.38 -1069.85L1060.87 -1094.62L1095.13 -1169.14L1163.93 -1169.28L1198.51 -1094.92L1164.25 -1020.4L1095.45 -1020.26ZM1095.12 -1173.35L1072.06 -1222.94L1060.55 -1247.72L1094.81 -1322.27L1163.61 -1322.42L1198.18 -1248.01L1163.92 -1173.49L1095.12 -1173.35ZM1057.3 -1398.74L1066.54 -1378.8L1091.87 -1324.37L1066.84 -1269.92L1057.61 -1249.81L988.777 -1249.67L954.236 -1324.08L988.464 -1398.59L1057.3 -1398.74ZM872.923 -1454.85L882.151 -1474.91L950.986 -1475.06L985.56 -1400.69L951.299 -1326.18L882.464 -1326.03L873.22 -1345.93L847.924 -1400.4L872.923 -1454.85ZM844.996 -1398.29L879.57 -1323.92L845.309 -1249.36L776.474 -1249.22L741.9 -1323.63L776.161 -1398.14L844.996 -1398.29ZM669.849 -1474.46L738.683 -1474.61L773.257 -1400.24L738.997 -1325.73L670.162 -1325.58L635.588 -1399.95L669.849 -1474.46ZM632.693 -1397.84L667.233 -1323.47L633.006 -1248.91L564.172 -1248.77L529.597 -1323.18L563.858 -1397.69L632.693 -1397.84ZM457.546 -1474.01L526.347 -1474.16L560.921 -1399.79L526.66 -1325.27L457.859 -1325.13L423.285 -1399.5L457.546 -1474.01ZM420.357 -1397.38L429.635 -1377.45L454.931 -1323.02L429.898 -1268.56L420.67 -1248.46L351.869 -1248.31L317.295 -1322.72L351.556 -1397.24L420.357 -1397.38ZM236.015 -1453.5L245.243 -1473.56L314.044 -1473.7L348.618 -1399.34L314.358 -1324.82L245.556 -1324.68L236.278 -1344.57L210.982 -1399.04L236.015 -1453.5ZM208.054 -1396.93L242.628 -1322.57L208.367 -1248.01L139.566 -1247.86L104.992 -1322.27L139.253 -1396.79L208.054 -1396.93ZM15.7933 -1435.85L32.9068 -1473.11L101.742 -1473.25L136.316 -1398.89L102.055 -1324.37L33.22 -1324.23L15.9499 -1361.41L-1.32034 -1398.59L15.7933 -1435.85ZM-4.24862 -1396.48L13.0216 -1359.3L30.3255 -1322.11L13.1782 -1284.86L-3.93526 -1247.56L-72.7701 -1247.41L-107.311 -1321.82L-73.0835 -1396.33L-4.24862 -1396.48ZM-179.396 -1472.66L-110.561 -1472.8L-75.9869 -1398.43L-110.248 -1323.92L-179.083 -1323.77L-213.657 -1398.14L-179.396 -1472.66ZM-216.551 -1396.03L-191.256 -1341.56L-181.977 -1321.66L-191.239 -1301.56L-216.238 -1247.11L-285.073 -1246.96L-319.647 -1321.37L-285.386 -1395.88L-216.551 -1396.03ZM-400.927 -1452.14L-391.699 -1472.2L-322.864 -1472.35L-288.323 -1397.98L-322.55 -1323.47L-391.385 -1323.32L-400.63 -1343.22L-425.959 -1397.69L-400.927 -1452.14ZM-428.888 -1395.58L-394.314 -1321.21L-428.574 -1246.65L-497.375 -1246.51L-531.95 -1320.92L-497.689 -1395.43L-428.888 -1395.58ZM-620.992 -1360.05L-638.262 -1397.24L-621.148 -1434.5L-604.001 -1471.75L-535.2 -1471.9L-500.626 -1397.53L-534.887 -1323.02L-603.688 -1322.87L-620.992 -1360.05ZM-620.67 -1206.92L-637.94 -1244.1L-620.826 -1281.4L-603.679 -1318.66L-534.878 -1318.81L-500.304 -1244.4L-534.565 -1169.88L-603.366 -1169.74L-620.67 -1206.92ZM-620.348 -1053.83L-637.618 -1091.01L-620.504 -1128.27L-603.357 -1165.53L-534.556 -1165.67L-499.982 -1091.3L-534.242 -1016.79L-603.044 -1016.64L-620.348 -1053.83ZM-620.025 -900.736L-637.296 -937.92L-620.182 -975.177L-603.035 -1012.43L-534.234 -1012.58L-499.66 -938.213L-533.92 -863.699L-602.721 -863.552L-620.025 -900.736ZM-619.703 -747.602L-636.973 -784.786L-619.86 -822.043L-602.713 -859.342L-533.911 -859.488L-499.337 -785.078L-533.598 -710.564L-602.399 -710.418L-619.703 -747.602ZM-619.381 -594.51L-636.651 -631.694L-619.538 -668.951L-602.39 -706.208L-533.589 -706.354L-499.015 -631.986L-533.276 -557.472L-602.077 -557.326L-619.381 -594.51ZM-619.059 -441.418L-636.329 -478.602L-619.216 -515.858L-602.068 -553.116L-533.267 -553.262L-498.693 -478.894L-532.954 -404.338L-601.755 -404.192L-619.059 -441.418ZM-618.737 -288.283L-636.007 -325.467L-618.893 -362.724L-601.746 -399.981L-532.945 -400.128L-498.371 -325.76L-532.632 -251.246L-601.433 -251.1L-618.737 -288.283ZM-618.415 -135.191L-635.685 -172.375L-618.571 -209.632L-601.424 -246.889L-532.623 -247.036L-498.049 -172.668L-532.309 -98.154L-601.111 -98.0077L-618.415 -135.191ZM-618.092 17.9427L-635.363 -19.2831L-618.249 -56.5403L-601.102 -93.7972L-532.301 -93.9435L-497.727 -19.5758L-531.987 54.9802L-600.788 55.1265L-618.092 17.9427ZM-531.665 208.072L-600.466 208.219L-617.77 171.035L-635.04 133.851L-617.927 96.5941L-600.78 59.337L-531.978 59.1907L-497.404 133.558L-531.665 208.072ZM-494.476 131.447L-529.05 57.0793L-494.789 -17.4769L-425.988 -17.6232L-391.414 56.7866L-425.675 131.301L-494.476 131.447ZM-319.329 207.621L-388.164 207.767L-397.476 187.745L-422.738 133.4L-397.705 78.9469L-388.477 58.8855L-319.642 58.7392L-285.102 133.107L-319.329 207.621ZM-282.173 130.995L-316.747 56.6278L-282.487 -17.9284L-213.652 -18.0747L-188.288 36.5232L-179.078 56.3351L-188.339 76.3965L-213.338 130.849L-282.173 130.995ZM-107.026 207.169L-175.861 207.316L-210.435 132.948L-176.174 58.4341L-107.339 58.2877L-72.7652 132.655L-107.026 207.169ZM-69.8706 130.544L-104.411 56.1763L-70.184 -18.3798L-1.34915 -18.5262L15.9211 18.6996L33.225 55.8836L16.0778 93.1407L-1.03579 130.398L-69.8706 130.544ZM105.277 206.718L36.4417 206.864L19.1716 169.68L1.90135 132.497L19.015 95.2396L36.1285 57.9826L104.963 57.8362L139.537 132.204L105.277 206.718ZM142.466 130.092L107.892 55.7248L142.152 -18.8314L210.954 -18.9777L245.528 55.4321L211.267 129.946L142.466 130.092ZM317.579 206.266L248.778 206.413L239.466 186.391L214.204 132.045L239.237 77.5924L248.465 57.5311L317.266 57.3848L351.84 131.752L317.579 206.266ZM354.768 129.641L320.194 55.2734L354.455 -19.2828L423.256 -19.4291L432.467 0.382613L457.83 54.9807L432.797 109.391L423.57 129.495L354.768 129.641ZM529.882 205.815L461.081 205.961L438.02 156.369L426.507 131.594L460.768 57.0796L529.569 56.9333L564.143 131.301L529.882 205.815ZM567.071 129.189L532.497 54.8219L566.758 -19.7343L635.593 -19.8807L670.133 54.5292L635.906 129.043L567.071 129.189ZM742.218 205.363L673.383 205.51L638.809 131.142L673.07 56.6281L741.905 56.4818L776.479 130.849L742.218 205.363ZM779.374 128.738L744.8 54.3704L779.06 -20.1858L847.895 -20.3321L882.469 54.0777L848.209 128.592L779.374 128.738ZM954.521 204.912L885.686 205.058L876.374 185.036L851.146 130.691L876.145 76.238L885.373 56.1767L954.208 56.0303L988.782 130.398L954.521 204.912ZM991.676 128.287L957.136 53.9189L991.363 -20.6372L1060.2 -20.7836L1069.41 -0.971862L1094.77 53.6262L1069.74 108.036L1060.51 128.14L991.676 128.287ZM1166.82 204.46L1098.02 204.607L1074.96 155.014L1063.45 130.239L1097.71 55.7251L1166.51 55.5788L1201.08 129.947L1166.82 204.46ZM1289.8 15.9907L1307.07 53.1747L1289.96 90.4317L1272.81 127.689L1204.01 127.835L1169.44 53.4674L1203.7 -21.0888L1272.5 -21.2351L1289.8 15.9907ZM1289.48 -137.143L1306.75 -99.9596L1289.64 -62.7026L1272.49 -25.4454L1203.69 -25.2991L1169.12 -99.6669L1203.38 -174.181L1272.18 -174.327L1289.48 -137.143ZM1289.16 -290.235L1306.43 -253.052L1289.32 -215.795L1272.17 -178.538L1203.37 -178.391L1168.79 -252.759L1203.05 -327.273L1271.86 -327.419L1289.16 -290.235ZM1288.84 -443.37L1306.11 -406.144L1288.99 -368.887L1271.85 -331.63L1203.05 -331.483L1168.47 -405.851L1202.73 -480.407L1271.53 -480.553L1288.84 -443.37ZM1288.52 -596.462L1305.79 -559.278L1288.67 -522.021L1271.53 -484.764L1202.72 -484.618L1168.15 -558.985L1202.41 -633.499L1271.21 -633.646L1288.52 -596.462ZM1288.19 -749.554L1305.46 -712.37L1288.35 -675.113L1271.2 -637.856L1202.4 -637.71L1167.83 -712.077L1202.09 -786.591L1270.89 -786.738L1288.19 -749.554ZM1287.87 -902.688L1305.14 -865.504L1288.03 -828.205L1270.88 -790.948L1202.08 -790.802L1167.51 -865.212L1201.77 -939.726L1270.57 -939.872L1287.87 -902.688ZM1287.55 -1055.78L1304.82 -1018.6L1287.71 -981.339L1270.56 -944.082L1201.76 -943.936L1167.18 -1018.3L1201.44 -1092.82L1270.25 -1092.96L1287.55 -1055.78ZM1287.23 -1208.87L1304.5 -1171.69L1287.38 -1134.43L1270.24 -1097.17L1201.44 -1097.03L1166.86 -1171.4L1201.12 -1245.91L1269.92 -1246.06L1287.23 -1208.87ZM1286.9 -1362.01L1304.18 -1324.82L1287.06 -1287.57L1269.91 -1250.27L1201.11 -1250.12L1166.54 -1324.53L1200.8 -1399.04L1269.6 -1399.19L1286.9 -1362.01Z" fill="url(#paint0_linear_25_18)"/>
<path d="M1238.36 -1475.82L1275.58 -1475.89L1275.57 -1478L1235.42 -1477.91L1218.31 -1440.66L1201.16 -1403.4L1132.36 -1403.25L1097.79 -1477.62L1023.12 -1477.46L998.089 -1423.01L988.861 -1402.95L920.026 -1402.8L885.486 -1477.17L810.819 -1477.01L776.558 -1402.5L707.723 -1402.35L673.149 -1476.72L598.483 -1476.56L564.255 -1402.05L495.421 -1401.9L460.846 -1476.27L386.18 -1476.11L361.147 -1421.66L351.919 -1401.59L283.118 -1401.45L248.544 -1475.82L173.877 -1475.66L139.616 -1401.14L70.8152 -1401L36.2412 -1475.36L-38.4255 -1475.21L-55.5728 -1437.95L-72.6863 -1400.69L-141.521 -1400.55L-176.062 -1474.91L-250.728 -1474.75L-259.99 -1454.69L-284.989 -1400.24L-353.824 -1400.09L-388.398 -1474.46L-463.065 -1474.3L-497.325 -1399.79L-566.127 -1399.64L-600.701 -1474.01L-675.367 -1473.85L-692.481 -1436.59L-709.628 -1399.34L-746.843 -1399.26L-746.835 -1395.05L-709.619 -1395.13L-692.315 -1357.94L-675.045 -1320.76L-692.159 -1283.5L-709.306 -1246.2L-746.521 -1246.12L-746.512 -1241.91L-709.297 -1241.99L-691.993 -1204.81L-674.723 -1167.63L-691.836 -1130.37L-708.984 -1093.11L-746.199 -1093.03L-746.19 -1088.82L-708.975 -1088.9L-691.671 -1051.72L-674.401 -1014.53L-691.514 -977.276L-708.662 -940.019L-745.877 -939.94L-745.868 -935.729L-708.653 -935.808L-691.349 -898.625L-674.079 -861.441L-691.192 -824.142L-708.339 -786.885L-745.555 -786.806L-745.546 -782.595L-708.33 -782.674L-691.027 -745.49L-673.756 -708.307L-690.87 -671.05L-708.017 -633.793L-745.233 -633.714L-745.224 -629.503L-708.008 -629.582L-690.704 -592.398L-673.434 -555.215L-690.548 -517.958L-707.695 -480.701L-744.91 -480.621L-744.902 -476.411L-707.686 -476.49L-690.382 -439.306L-673.112 -402.08L-690.226 -364.823L-707.373 -327.566L-744.588 -327.487L-744.579 -323.277L-707.364 -323.356L-690.06 -286.172L-672.79 -248.988L-689.903 -211.731L-707.051 -174.474L-744.266 -174.395L-744.257 -170.185L-707.042 -170.264L-689.738 -133.08L-672.468 -95.8963L-689.581 -58.6393L-706.729 -21.3821L-743.944 -21.3029L-743.935 -17.0926L-706.72 -17.1717L-689.416 20.054L-672.146 57.2381L-689.259 94.4951L-706.406 131.752L-743.622 131.831L-743.613 136.042L-706.397 135.962L-689.094 173.146L-671.823 210.33L-597.157 210.171L-562.896 135.657L-494.095 135.511L-471.034 185.103L-459.521 209.879L-384.854 209.72L-350.593 135.206L-281.758 135.059L-256.53 189.405L-247.184 209.427L-172.518 209.268L-138.291 134.754L-69.4558 134.608L-52.1856 171.792L-34.8817 208.976L39.785 208.817L74.0457 134.303L142.847 134.157L165.908 183.749L177.421 208.524L252.088 208.365L286.348 133.851L355.15 133.705L364.462 153.727L389.724 208.073L464.39 207.914L498.651 133.4L567.486 133.254L602.026 207.621L676.693 207.462L710.954 132.948L779.789 132.802L802.816 182.394L814.363 207.17L889.029 207.011L923.256 132.497L992.091 132.351L1001.4 152.373L1026.67 206.718L1101.33 206.559L1135.59 132.045L1204.39 131.899L1221.7 169.083L1238.97 206.267L1279.12 206.181L1279.11 204.076L1241.9 204.155L1224.59 166.971L1207.32 129.788L1224.44 92.5307L1241.58 55.2737L1278.8 55.1945L1278.79 50.984L1241.57 51.0632L1224.27 13.8794L1207 -23.3465L1224.11 -60.6036L1241.26 -97.8606L1278.48 -97.9397L1278.47 -102.15L1241.25 -102.071L1223.95 -139.255L1206.68 -176.439L1223.79 -213.696L1240.94 -250.953L1278.15 -251.032L1278.15 -255.242L1240.93 -255.163L1223.63 -292.347L1206.36 -329.531L1223.47 -366.788L1240.62 -404.045L1277.83 -404.124L1277.82 -408.334L1240.61 -408.255L1223.3 -445.481L1206.03 -482.665L1223.15 -519.922L1240.29 -557.179L1277.51 -557.258L1277.5 -561.469L1240.29 -561.389L1222.98 -598.573L1205.71 -635.757L1222.82 -673.014L1239.97 -710.271L1277.19 -710.35L1277.18 -714.561L1239.96 -714.481L1222.66 -751.665L1205.39 -788.849L1222.5 -826.106L1239.65 -863.405L1276.87 -863.484L1276.86 -867.695L1239.64 -867.616L1222.34 -904.799L1205.07 -941.983L1222.18 -979.24L1239.33 -1016.5L1276.54 -1016.58L1276.53 -1020.79L1239.32 -1020.71L1222.01 -1057.89L1204.74 -1095.08L1221.86 -1132.33L1239.01 -1169.59L1276.22 -1169.67L1276.21 -1173.88L1239 -1173.8L1221.69 -1210.98L1204.42 -1248.17L1221.54 -1285.47L1238.68 -1322.72L1275.9 -1322.8L1275.89 -1327.01L1238.67 -1326.93L1221.37 -1364.12L1204.1 -1401.3L1221.21 -1438.56L1238.36 -1475.82ZM1026.06 -1475.36L1094.86 -1475.51L1129.43 -1401.14L1095.17 -1326.63L1026.37 -1326.48L991.798 -1400.85L1026.06 -1475.36ZM603.022 -713.127L568.448 -787.495L602.708 -862.051L671.543 -862.197L706.117 -787.787L671.856 -713.273L603.022 -713.127ZM706.439 -634.695L672.179 -560.181L603.344 -560.035L568.77 -634.403L603.031 -708.916L671.865 -709.063L706.439 -634.695ZM600.093 -711.015L565.866 -636.502L497.031 -636.355L462.457 -710.723L496.718 -785.237L565.553 -785.383L600.093 -711.015ZM494.103 -634.244L459.842 -559.73L391.041 -559.583L367.98 -609.176L356.467 -633.951L390.728 -708.465L459.529 -708.611L494.103 -634.244ZM459.52 -712.822L390.719 -712.675L356.145 -787.043L390.406 -861.599L459.207 -861.746L493.781 -787.336L459.52 -712.822ZM362.495 -765.036L387.791 -710.564L362.758 -656.111L353.53 -636.05L284.729 -635.904L250.155 -710.271L284.415 -784.785L353.217 -784.932L362.495 -765.036ZM281.8 -633.792L247.54 -559.278L178.738 -559.132L169.426 -579.154L144.164 -633.5L169.197 -687.952L178.425 -708.014L247.226 -708.16L281.8 -633.792ZM247.217 -712.37L178.416 -712.224L169.138 -732.162L143.842 -786.592L168.875 -841.044L178.103 -861.148L246.904 -861.294L281.478 -786.884L247.217 -712.37ZM175.488 -710.113L141.227 -635.599L72.426 -635.452L37.852 -709.82L72.1128 -784.334L140.914 -784.48L175.488 -710.113ZM69.4977 -633.341L35.2369 -558.827L-33.5979 -558.68L-50.8681 -595.864L-68.1383 -633.048L-51.0247 -670.305L-33.9112 -707.562L34.9236 -707.708L69.4977 -633.341ZM34.9148 -711.919L-33.9201 -711.772L-51.1902 -748.956L-68.4605 -786.14L-51.3469 -823.397L-34.2334 -860.696L34.6014 -860.843L69.1756 -786.433L34.9148 -711.919ZM-54.1186 -746.845L-36.8147 -709.661L-53.9619 -672.404L-71.0755 -635.147L-139.91 -635.001L-174.451 -709.368L-140.224 -783.882L-71.3887 -784.029L-54.1186 -746.845ZM-177.388 -711.467L-246.223 -711.321L-280.797 -785.689L-246.536 -860.245L-177.701 -860.391L-143.127 -785.981L-177.388 -711.467ZM-177.379 -707.257L-142.805 -632.889L-177.066 -558.375L-245.901 -558.229L-280.475 -632.597L-246.214 -707.111L-177.379 -707.257ZM-177.057 -554.165L-142.483 -479.797L-176.744 -405.241L-245.578 -405.095L-280.153 -479.505L-245.892 -554.019L-177.057 -554.165ZM-174.129 -556.276L-139.901 -630.79L-71.0666 -630.937L-53.7964 -593.753L-36.4925 -556.569L-53.6398 -519.312L-70.7533 -482.055L-139.588 -481.909L-174.129 -556.276ZM-50.7026 -517.213L-33.5891 -554.47L35.2458 -554.616L69.8198 -480.249L35.5591 -405.693L-33.2757 -405.546L-50.546 -442.772L-67.8162 -479.956L-50.7026 -517.213ZM38.1741 -556.728L72.4349 -631.242L141.236 -631.388L164.297 -581.796L175.81 -557.021L141.549 -482.507L72.7482 -482.36L38.1741 -556.728ZM169.519 -534.818L178.747 -554.922L247.548 -555.068L282.123 -480.7L247.862 -406.144L179.061 -405.998L169.85 -425.81L144.487 -480.408L169.519 -534.818ZM250.477 -557.179L284.738 -631.693L353.539 -631.84L362.851 -611.818L388.113 -557.472L363.08 -503.019L353.852 -482.958L285.051 -482.812L250.477 -557.179ZM391.05 -555.373L459.851 -555.519L494.425 -481.152L460.164 -406.596L391.363 -406.449L356.789 -480.859L391.05 -555.373ZM462.779 -557.631L497.04 -632.145L565.875 -632.291L600.415 -557.923L566.188 -483.41L497.353 -483.263L462.779 -557.631ZM603.353 -555.824L672.187 -555.971L706.762 -481.603L672.501 -407.047L603.666 -406.901L569.092 -481.31L603.353 -555.824ZM675.082 -558.082L709.343 -632.596L778.178 -632.743L801.205 -583.15L812.752 -558.375L778.491 -483.861L709.656 -483.715L675.082 -558.082ZM709.334 -636.807L674.76 -711.174L709.021 -785.688L777.856 -785.835L812.43 -711.467L778.169 -636.953L709.334 -636.807ZM709.012 -789.899L674.438 -864.266L708.699 -938.823L777.533 -938.969L800.56 -889.376L812.107 -864.601L777.847 -790.045L709.012 -789.899ZM671.534 -866.408L602.699 -866.261L568.125 -940.629L602.386 -1015.14L671.221 -1015.29L705.795 -940.922L671.534 -866.408ZM599.771 -864.15L565.544 -789.594L496.709 -789.447L462.135 -863.857L496.396 -938.371L565.231 -938.517L599.771 -864.15ZM459.198 -865.956L390.397 -865.81L367.336 -915.36L355.823 -940.177L390.083 -1014.69L458.885 -1014.84L493.459 -940.47L459.198 -865.956ZM362.207 -918.002L387.468 -863.698L362.436 -809.246L353.208 -789.142L284.407 -788.996L249.832 -863.406L284.093 -937.92L352.894 -938.066L362.207 -918.002ZM246.895 -865.505L178.094 -865.358L168.782 -885.38L143.52 -939.726L168.586 -994.263L177.781 -1014.24L246.582 -1014.39L281.156 -940.019L246.895 -865.505ZM163.652 -888.022L175.166 -863.247L140.905 -788.691L72.1039 -788.544L37.5299 -862.912L71.7905 -937.468L140.592 -937.614L163.652 -888.022ZM34.5925 -865.053L-34.2423 -864.907L-51.5124 -902.091L-68.7827 -939.274L-51.6691 -976.531L-34.5556 -1013.79L34.2793 -1013.93L68.8534 -939.567L34.5925 -865.053ZM-54.4408 -899.979L-37.1369 -862.795L-54.284 -825.496L-71.3976 -788.239L-140.232 -788.093L-174.773 -862.503L-140.546 -937.017L-71.711 -937.163L-54.4408 -899.979ZM-177.71 -864.602L-246.545 -864.455L-281.119 -938.823L-246.858 -1013.34L-178.023 -1013.48L-143.449 -939.116L-177.71 -864.602ZM-258.786 -882.366L-249.44 -862.344L-258.701 -842.24L-283.7 -787.788L-352.535 -787.641L-387.109 -862.051L-352.849 -936.565L-284.014 -936.712L-258.786 -882.366ZM-283.691 -783.577L-258.396 -729.148L-249.117 -709.21L-258.379 -689.148L-283.378 -634.696L-352.213 -634.549L-386.787 -708.917L-352.526 -783.431L-283.691 -783.577ZM-283.369 -630.485L-258.141 -576.14L-248.795 -556.118L-258.057 -536.014L-283.056 -481.604L-351.891 -481.457L-386.465 -555.825L-352.204 -630.339L-283.369 -630.485ZM-283.047 -477.393L-257.684 -422.795L-248.473 -402.983L-257.735 -382.922L-282.734 -328.469L-351.569 -328.323L-386.143 -402.691L-351.882 -477.247L-283.047 -477.393ZM-245.57 -400.884L-176.735 -401.031L-142.161 -326.663L-176.421 -252.149L-245.256 -252.003L-279.83 -326.37L-245.57 -400.884ZM-173.806 -403.142L-139.579 -477.698L-70.7445 -477.845L-53.4743 -440.661L-36.1703 -403.435L-53.3176 -366.178L-70.4311 -328.921L-139.266 -328.774L-173.806 -403.142ZM-50.3804 -364.079L-33.2669 -401.336L35.568 -401.482L70.1421 -327.115L35.8813 -252.601L-32.9536 -252.454L-50.2237 -289.638L-67.494 -326.822L-50.3804 -364.079ZM38.4964 -403.594L72.757 -478.15L141.558 -478.296L176.132 -403.886L141.872 -329.372L73.0704 -329.226L38.4964 -403.594ZM169.841 -381.726L179.069 -401.787L247.871 -401.934L282.445 -327.566L248.184 -253.052L179.383 -252.906L170.07 -272.928L144.809 -327.273L169.841 -381.726ZM250.799 -404.045L285.06 -478.601L353.861 -478.748L363.072 -458.936L388.435 -404.338L363.402 -349.927L354.174 -329.824L285.373 -329.677L250.799 -404.045ZM391.372 -402.239L460.173 -402.385L494.747 -328.017L460.487 -253.503L391.685 -253.357L368.625 -302.95L357.111 -327.725L391.372 -402.239ZM463.102 -404.497L497.362 -479.053L566.197 -479.199L600.738 -404.789L566.511 -330.275L497.676 -330.129L463.102 -404.497ZM603.675 -402.69L672.51 -402.837L707.084 -328.469L672.823 -253.955L603.988 -253.809L569.414 -328.176L603.675 -402.69ZM675.404 -404.948L709.665 -479.504L778.5 -479.651L813.074 -405.241L778.813 -330.727L709.978 -330.58L675.404 -404.948ZM806.75 -383.08L815.978 -403.142L884.812 -403.288L919.386 -328.92L885.126 -254.406L816.291 -254.26L806.978 -274.282L781.75 -328.628L806.75 -383.08ZM815.969 -407.352L806.792 -427.164L781.428 -481.762L806.427 -536.172L815.655 -556.276L884.49 -556.422L919.064 -482.055L884.804 -407.499L815.969 -407.352ZM815.646 -560.486L806.334 -580.508L781.106 -634.854L806.105 -689.307L815.333 -709.368L884.168 -709.514L918.742 -635.147L884.481 -560.633L815.646 -560.486ZM815.324 -713.578L806.08 -733.516L780.784 -787.946L805.783 -842.399L815.011 -862.502L883.846 -862.649L918.42 -788.239L884.159 -713.725L815.324 -713.578ZM815.002 -866.713L805.69 -886.735L780.462 -941.08L805.528 -995.617L814.689 -1015.59L883.524 -1015.74L918.098 -941.373L883.837 -866.859L815.002 -866.713ZM814.68 -1019.8L805.368 -1039.83L780.14 -1094.17L805.206 -1148.75L814.367 -1168.69L883.202 -1168.83L917.776 -1094.47L883.515 -1019.95L814.68 -1019.8ZM800.238 -1042.47L811.785 -1017.69L777.525 -943.179L708.69 -943.033L674.116 -1017.4L708.376 -1091.91L777.211 -1092.06L800.238 -1042.47ZM671.212 -1019.5L602.377 -1019.35L567.803 -1093.72L602.064 -1168.23L670.899 -1168.38L705.473 -1094.01L671.212 -1019.5ZM599.449 -1017.24L565.222 -942.728L496.387 -942.582L461.813 -1016.95L496.074 -1091.46L564.909 -1091.61L599.449 -1017.24ZM458.876 -1019.05L390.075 -1018.9L367.014 -1068.49L355.501 -1093.27L389.761 -1167.78L458.562 -1167.93L493.137 -1093.56L458.876 -1019.05ZM361.885 -1071.14L387.146 -1016.79L362.08 -962.211L352.886 -942.276L284.084 -942.13L249.51 -1016.5L283.771 -1091.01L352.572 -1091.16L361.885 -1071.14ZM246.573 -1018.6L177.772 -1018.45L168.46 -1038.47L143.198 -1092.82L168.264 -1147.4L177.459 -1167.33L246.26 -1167.48L280.834 -1093.11L246.573 -1018.6ZM163.33 -1041.11L174.844 -1016.34L140.583 -941.825L71.7817 -941.679L37.2076 -1016.05L71.4684 -1090.56L140.27 -1090.71L163.33 -1041.11ZM34.2704 -1018.15L-34.5644 -1018L-51.8346 -1055.18L-69.1048 -1092.37L-51.9912 -1129.62L-34.8777 -1166.88L33.9571 -1167.03L68.5312 -1092.66L34.2704 -1018.15ZM-54.7629 -1053.07L-37.459 -1015.89L-54.6063 -978.63L-71.7198 -941.373L-140.555 -941.227L-175.095 -1015.59L-140.868 -1090.11L-72.0331 -1090.26L-54.7629 -1053.07ZM-178.032 -1017.69L-246.867 -1017.55L-281.441 -1091.91L-247.18 -1166.43L-178.346 -1166.58L-143.771 -1092.21L-178.032 -1017.69ZM-259.108 -1035.46L-249.762 -1015.44L-258.956 -995.459L-284.023 -940.922L-352.857 -940.776L-387.431 -1015.14L-353.171 -1089.66L-284.336 -1089.8L-259.108 -1035.46ZM-390.335 -1017.24L-459.17 -1017.1L-468.482 -1037.12L-493.744 -1091.46L-468.644 -1146.04L-459.483 -1165.98L-390.648 -1166.12L-356.108 -1091.76L-390.335 -1017.24ZM-390.326 -1013.03L-355.786 -938.664L-390.013 -864.15L-458.848 -864.004L-468.16 -884.026L-493.422 -938.371L-468.322 -992.908L-459.161 -1012.89L-390.326 -1013.03ZM-390.004 -859.94L-355.463 -785.53L-389.691 -711.016L-458.525 -710.87L-467.77 -730.808L-493.1 -785.237L-468.067 -839.69L-458.839 -859.793L-390.004 -859.94ZM-389.682 -706.805L-355.141 -632.438L-389.368 -557.924L-458.203 -557.778L-467.516 -577.8L-492.777 -632.145L-467.745 -686.598L-458.517 -706.659L-389.682 -706.805ZM-389.36 -553.713L-354.819 -479.346L-389.046 -404.79L-457.881 -404.643L-467.092 -424.455L-492.455 -479.053L-467.422 -533.463L-458.194 -553.567L-389.36 -553.713ZM-389.037 -400.579L-354.497 -326.212L-388.724 -251.698L-457.559 -251.551L-466.871 -271.573L-492.133 -325.919L-467.1 -380.371L-457.872 -400.433L-389.037 -400.579ZM-388.715 -247.487L-354.175 -173.119L-388.402 -98.6055L-457.237 -98.4592L-466.549 -118.481L-491.811 -172.827L-466.778 -227.279L-457.55 -247.341L-388.715 -247.487ZM-385.821 -249.598L-351.56 -324.113L-282.725 -324.259L-257.497 -269.913L-248.151 -249.891L-257.412 -229.83L-282.412 -175.377L-351.247 -175.231L-385.821 -249.598ZM-245.247 -247.792L-176.413 -247.939L-141.838 -173.571L-176.099 -99.057L-244.934 -98.9106L-279.508 -173.278L-245.247 -247.792ZM-173.484 -250.05L-139.257 -324.564L-70.4223 -324.71L-53.1521 -287.526L-35.8482 -250.343L-52.9954 -213.086L-70.109 -175.829L-138.944 -175.682L-173.484 -250.05ZM-50.0582 -210.987L-32.9447 -248.244L35.8901 -248.39L70.4642 -174.022L36.2034 -99.5085L-32.6315 -99.3621L-49.9016 -136.546L-67.1718 -173.73L-50.0582 -210.987ZM38.8185 -250.502L73.0793 -325.016L141.88 -325.162L164.941 -275.569L176.454 -250.794L142.194 -176.28L73.3925 -176.134L38.8185 -250.502ZM170.164 -228.634L179.392 -248.695L248.193 -248.842L282.767 -174.474L248.506 -99.9599L179.705 -99.8136L170.393 -119.836L145.131 -174.181L170.164 -228.634ZM251.121 -250.953L285.382 -325.467L354.183 -325.613L363.495 -305.591L388.757 -251.246L363.724 -196.793L354.496 -176.732L285.695 -176.585L251.121 -250.953ZM391.694 -249.147L460.495 -249.293L495.07 -174.925L460.809 -100.411L392.008 -100.265L368.947 -149.857L357.434 -174.633L391.694 -249.147ZM463.424 -251.404L497.685 -325.918L566.519 -326.065L601.06 -251.697L566.833 -177.183L497.998 -177.037L463.424 -251.404ZM603.997 -249.598L672.832 -249.745L707.406 -175.377L673.145 -100.863L604.31 -100.717L569.736 -175.084L603.997 -249.598ZM675.727 -251.856L709.987 -326.37L778.822 -326.516L801.849 -276.924L813.396 -252.149L779.135 -177.635L710.301 -177.488L675.727 -251.856ZM807.072 -229.988L816.3 -250.05L885.135 -250.196L919.709 -175.828L885.448 -101.314L816.613 -101.168L807.301 -121.19L782.073 -175.536L807.072 -229.988ZM888.063 -252.307L922.29 -326.821L991.125 -326.968L1000.44 -306.946L1025.7 -252.6L1000.67 -198.148L991.438 -178.086L922.603 -177.94L888.063 -252.307ZM922.281 -331.032L887.741 -405.4L921.968 -479.956L990.803 -480.102L1000.01 -460.29L1025.38 -405.692L1000.34 -351.282L991.116 -331.178L922.281 -331.032ZM921.959 -484.166L887.419 -558.534L921.646 -633.048L990.481 -633.194L999.793 -613.172L1025.05 -558.826L1000.02 -504.374L990.794 -484.312L921.959 -484.166ZM921.637 -637.258L887.096 -711.626L921.323 -786.14L990.158 -786.286L999.403 -766.39L1024.73 -711.918L999.7 -657.466L990.472 -637.405L921.637 -637.258ZM921.315 -790.35L886.774 -864.76L921.001 -939.274L989.836 -939.42L999.148 -919.356L1024.41 -865.053L999.377 -810.6L990.15 -790.497L921.315 -790.35ZM920.992 -943.484L886.452 -1017.85L920.679 -1092.37L989.514 -1092.51L998.826 -1072.49L1024.09 -1018.14L998.988 -963.566L989.827 -943.631L920.992 -943.484ZM920.67 -1096.58L886.13 -1170.94L920.357 -1245.46L989.192 -1245.6L998.504 -1225.58L1023.77 -1171.24L998.666 -1116.7L989.505 -1096.72L920.67 -1096.58ZM883.193 -1173.04L814.358 -1172.9L805.045 -1192.96L779.818 -1247.26L804.817 -1301.72L814.044 -1321.82L882.879 -1321.97L917.453 -1247.56L883.193 -1173.04ZM799.916 -1195.6L811.463 -1170.79L777.202 -1096.27L708.368 -1096.13L673.794 -1170.49L708.054 -1245.01L776.889 -1245.15L799.916 -1195.6ZM670.89 -1172.59L602.055 -1172.45L567.481 -1246.81L601.742 -1321.37L670.577 -1321.52L705.151 -1247.11L670.89 -1172.59ZM599.127 -1170.33L564.9 -1095.82L496.065 -1095.67L461.491 -1170.04L495.752 -1244.56L564.586 -1244.7L599.127 -1170.33ZM458.554 -1172.14L389.752 -1171.99L366.692 -1221.59L355.178 -1246.36L389.439 -1320.92L458.24 -1321.06L492.814 -1246.7L458.554 -1172.14ZM361.562 -1224.23L386.824 -1169.88L361.758 -1115.35L352.563 -1095.37L283.762 -1095.22L249.188 -1169.59L283.449 -1244.1L352.25 -1244.25L361.562 -1224.23ZM246.251 -1171.69L177.45 -1171.54L168.137 -1191.61L142.876 -1245.91L167.909 -1300.36L177.136 -1320.47L245.938 -1320.61L280.512 -1246.2L246.251 -1171.69ZM163.008 -1194.25L174.521 -1169.43L140.261 -1094.92L71.4596 -1094.77L36.8855 -1169.14L71.1463 -1243.65L139.947 -1243.8L163.008 -1194.25ZM33.9483 -1171.24L-34.8866 -1171.09L-52.1567 -1208.27L-69.427 -1245.46L-52.3134 -1282.76L-35.1999 -1320.01L33.6349 -1320.16L68.2091 -1245.75L33.9483 -1171.24ZM-55.085 -1206.16L-37.7811 -1168.98L-54.9284 -1131.72L-72.042 -1094.47L-140.877 -1094.32L-175.417 -1168.69L-141.19 -1243.2L-72.3552 -1243.35L-55.085 -1206.16ZM-178.354 -1170.79L-247.189 -1170.64L-281.763 -1245.01L-247.503 -1319.56L-178.668 -1319.71L-144.094 -1245.3L-178.354 -1170.79ZM-259.43 -1188.59L-250.084 -1168.53L-259.278 -1148.59L-284.345 -1094.01L-353.18 -1093.87L-387.754 -1168.24L-353.493 -1242.75L-284.658 -1242.9L-259.43 -1188.59ZM-390.657 -1170.33L-459.492 -1170.19L-468.804 -1190.25L-494.066 -1244.56L-469.033 -1299.01L-459.805 -1319.11L-390.97 -1319.26L-356.43 -1244.85L-390.657 -1170.33ZM-473.934 -1192.89L-462.42 -1168.08L-496.681 -1093.56L-565.482 -1093.42L-600.056 -1167.78L-565.795 -1242.3L-496.994 -1242.44L-473.934 -1192.89ZM-496.672 -1089.35L-473.611 -1039.76L-462.098 -1014.98L-496.359 -940.47L-565.16 -940.324L-599.734 -1014.69L-565.473 -1089.21L-496.672 -1089.35ZM-496.35 -936.26L-473.289 -886.668L-461.776 -861.892L-496.037 -787.336L-564.838 -787.19L-599.412 -861.6L-565.151 -936.114L-496.35 -936.26ZM-496.028 -783.126L-461.454 -708.758L-495.715 -634.244L-564.516 -634.098L-599.09 -708.465L-564.829 -782.979L-496.028 -783.126ZM-495.706 -630.034L-472.645 -580.441L-461.132 -555.666L-495.392 -481.152L-564.194 -481.006L-598.768 -555.373L-564.507 -629.887L-495.706 -630.034ZM-495.384 -476.942L-460.809 -402.532L-495.07 -328.018L-563.871 -327.872L-598.445 -402.239L-564.185 -476.795L-495.384 -476.942ZM-495.061 -323.807L-472.001 -274.215L-460.487 -249.44L-494.748 -174.926L-563.549 -174.779L-598.123 -249.147L-563.862 -323.661L-495.061 -323.807ZM-494.739 -170.715L-471.679 -121.123L-460.165 -96.3478L-494.426 -21.8335L-563.227 -21.6872L-597.801 -96.0551L-563.54 -170.569L-494.739 -170.715ZM-466.456 -74.145L-457.228 -94.2487L-388.393 -94.3951L-353.853 -20.0273L-388.08 54.5287L-456.915 54.6751L-466.125 34.8633L-491.489 -19.7346L-466.456 -74.145ZM-385.498 -96.5065L-351.238 -171.02L-282.403 -171.167L-257.175 -116.821L-247.829 -96.7993L-257.09 -76.6956L-282.09 -22.2851L-350.924 -22.1387L-385.498 -96.5065ZM-244.925 -94.7001L-176.09 -94.8465L-141.516 -20.4788L-175.777 54.0772L-244.612 54.2236L-279.186 -20.1861L-244.925 -94.7001ZM-173.162 -96.9581L-138.935 -171.472L-70.1001 -171.618L-52.8299 -134.434L-35.526 -97.2508L-52.6733 -59.9937L-69.7868 -22.7365L-138.622 -22.5902L-173.162 -96.9581ZM-49.7361 -57.8948L-32.6226 -95.1516L36.2123 -95.298L70.7863 -20.9303L36.5256 53.6258L-32.3092 53.7721L-49.5794 16.5882L-66.8497 -20.6376L-49.7361 -57.8948ZM39.1406 -97.4095L73.4014 -171.923L142.203 -172.07L165.263 -122.477L176.777 -97.7022L142.516 -23.188L73.7147 -23.0417L39.1406 -97.4095ZM170.486 -75.4995L179.714 -95.6032L248.515 -95.7495L283.089 -21.3818L248.828 53.1743L180.027 53.3206L170.816 33.5088L145.453 -21.0891L170.486 -75.4995ZM251.443 -97.861L285.704 -172.375L354.505 -172.521L363.818 -152.499L389.079 -98.1537L364.047 -43.701L354.819 -23.6395L286.017 -23.4932L251.443 -97.861ZM392.016 -96.0546L460.818 -96.2009L495.392 -21.8332L461.131 52.7228L392.33 52.8691L357.756 -21.5405L392.016 -96.0546ZM463.746 -98.3125L498.007 -172.826L566.842 -172.973L601.382 -98.6052L567.155 -24.091L498.32 -23.9446L463.746 -98.3125ZM604.319 -96.5061L673.154 -96.6525L707.728 -22.2848L673.467 52.2713L604.633 52.4177L570.058 -21.992L604.319 -96.5061ZM676.049 -98.7639L710.309 -173.278L779.144 -173.424L802.171 -123.832L813.718 -99.0567L779.458 -24.5425L710.623 -24.3961L676.049 -98.7639ZM807.394 -76.8539L816.622 -96.9576L885.457 -97.1039L920.031 -22.7362L885.77 51.8198L816.935 51.9662L807.758 32.1544L782.395 -22.4435L807.394 -76.8539ZM888.385 -99.2155L922.612 -173.729L991.447 -173.876L1000.76 -153.854L1026.02 -99.5082L1000.99 -45.0555L991.76 -24.9939L922.925 -24.8476L888.385 -99.2155ZM1028.96 -97.4091L1097.76 -97.5554L1132.33 -23.1877L1098.07 51.3683L1029.27 51.5147L994.697 -22.895L1028.96 -97.4091ZM1028.95 -101.62L1005.89 -151.212L994.375 -175.987L1028.64 -250.501L1097.44 -250.648L1132.01 -176.28L1097.75 -101.766L1028.95 -101.62ZM1028.63 -254.712L1005.57 -304.304L994.053 -329.079L1028.31 -403.593L1097.12 -403.74L1131.69 -329.372L1097.43 -254.858L1028.63 -254.712ZM1028.31 -407.804L993.731 -482.213L1027.99 -556.727L1096.79 -556.874L1131.37 -482.506L1097.11 -407.95L1028.31 -407.804ZM1027.98 -560.938L1004.92 -610.53L993.409 -635.306L1027.67 -709.819L1096.47 -709.966L1131.04 -635.598L1096.78 -561.084L1027.98 -560.938ZM1027.66 -714.03L993.087 -788.398L1027.35 -862.954L1096.15 -863.1L1130.72 -788.69L1096.46 -714.176L1027.66 -714.03ZM1027.34 -867.164L1004.28 -916.715L992.764 -941.532L1027.03 -1016.05L1095.83 -1016.19L1130.4 -941.825L1096.14 -867.31L1027.34 -867.164ZM1027.02 -1020.26L1003.96 -1069.85L992.442 -1094.62L1026.7 -1169.14L1095.5 -1169.28L1130.08 -1094.92L1095.82 -1020.4L1027.02 -1020.26ZM1026.69 -1173.35L1003.63 -1222.94L992.12 -1247.72L1026.38 -1322.27L1095.18 -1322.42L1129.76 -1248.01L1095.5 -1173.49L1026.69 -1173.35ZM988.87 -1398.74L998.114 -1378.8L1023.44 -1324.37L998.411 -1269.92L989.183 -1249.81L920.348 -1249.67L885.808 -1324.08L920.035 -1398.59L988.87 -1398.74ZM804.494 -1454.85L813.722 -1474.91L882.557 -1475.06L917.131 -1400.69L882.871 -1326.18L814.036 -1326.03L804.791 -1345.93L779.495 -1400.4L804.494 -1454.85ZM776.567 -1398.29L811.141 -1323.92L776.88 -1249.36L708.045 -1249.22L673.471 -1323.63L707.732 -1398.14L776.567 -1398.29ZM601.42 -1474.46L670.254 -1474.61L704.829 -1400.24L670.568 -1325.73L601.733 -1325.58L567.159 -1399.95L601.42 -1474.46ZM564.264 -1397.84L598.805 -1323.47L564.578 -1248.91L495.743 -1248.77L461.169 -1323.18L495.429 -1397.69L564.264 -1397.84ZM389.117 -1474.01L457.918 -1474.16L492.492 -1399.79L458.231 -1325.27L389.43 -1325.13L354.856 -1399.5L389.117 -1474.01ZM351.928 -1397.38L361.206 -1377.45L386.502 -1323.02L361.469 -1268.56L352.241 -1248.46L283.44 -1248.31L248.866 -1322.72L283.127 -1397.24L351.928 -1397.38ZM167.586 -1453.5L176.814 -1473.56L245.615 -1473.7L280.19 -1399.34L245.929 -1324.82L177.128 -1324.68L167.849 -1344.57L142.554 -1399.04L167.586 -1453.5ZM139.625 -1396.93L174.199 -1322.57L139.939 -1248.01L71.1374 -1247.86L36.5633 -1322.27L70.8241 -1396.79L139.625 -1396.93ZM-52.6356 -1435.85L-35.5221 -1473.11L33.3128 -1473.25L67.8869 -1398.89L33.6261 -1324.37L-35.2088 -1324.23L-52.4789 -1361.41L-69.7492 -1398.59L-52.6356 -1435.85ZM-72.6775 -1396.48L-55.4073 -1359.3L-38.1034 -1322.11L-55.2506 -1284.86L-72.3641 -1247.56L-141.199 -1247.41L-175.739 -1321.82L-141.512 -1396.33L-72.6775 -1396.48ZM-247.825 -1472.66L-178.99 -1472.8L-144.416 -1398.43L-178.677 -1323.92L-247.511 -1323.77L-282.086 -1398.14L-247.825 -1472.66ZM-284.98 -1396.03L-259.684 -1341.56L-250.406 -1321.66L-259.668 -1301.56L-284.667 -1247.11L-353.502 -1246.96L-388.076 -1321.37L-353.815 -1395.88L-284.98 -1396.03ZM-469.355 -1452.14L-460.127 -1472.2L-391.293 -1472.35L-356.752 -1397.98L-390.979 -1323.47L-459.814 -1323.32L-469.059 -1343.22L-494.388 -1397.69L-469.355 -1452.14ZM-497.317 -1395.58L-462.742 -1321.21L-497.003 -1246.65L-565.804 -1246.51L-600.378 -1320.92L-566.118 -1395.43L-497.317 -1395.58ZM-689.421 -1360.05L-706.691 -1397.24L-689.577 -1434.5L-672.43 -1471.75L-603.629 -1471.9L-569.055 -1397.53L-603.316 -1323.02L-672.117 -1322.87L-689.421 -1360.05ZM-689.098 -1206.92L-706.369 -1244.1L-689.255 -1281.4L-672.108 -1318.66L-603.307 -1318.81L-568.733 -1244.4L-602.993 -1169.88L-671.795 -1169.74L-689.098 -1206.92ZM-688.776 -1053.83L-706.047 -1091.01L-688.933 -1128.27L-671.786 -1165.53L-602.985 -1165.67L-568.41 -1091.3L-602.671 -1016.79L-671.472 -1016.64L-688.776 -1053.83ZM-688.454 -900.736L-705.724 -937.92L-688.611 -975.177L-671.464 -1012.43L-602.662 -1012.58L-568.088 -938.213L-602.349 -863.699L-671.15 -863.552L-688.454 -900.736ZM-688.132 -747.602L-705.402 -784.786L-688.289 -822.043L-671.141 -859.342L-602.34 -859.488L-567.766 -785.078L-602.027 -710.564L-670.828 -710.418L-688.132 -747.602ZM-687.81 -594.51L-705.08 -631.694L-687.966 -668.951L-670.819 -706.208L-602.018 -706.354L-567.444 -631.986L-601.705 -557.472L-670.506 -557.326L-687.81 -594.51ZM-687.488 -441.418L-704.758 -478.602L-687.644 -515.858L-670.497 -553.116L-601.696 -553.262L-567.122 -478.894L-601.383 -404.338L-670.184 -404.192L-687.488 -441.418ZM-687.165 -288.283L-704.436 -325.467L-687.322 -362.724L-670.175 -399.981L-601.374 -400.128L-566.8 -325.76L-601.06 -251.246L-669.862 -251.1L-687.165 -288.283ZM-686.843 -135.191L-704.114 -172.375L-687 -209.632L-669.853 -246.889L-601.052 -247.036L-566.477 -172.668L-600.738 -98.154L-669.539 -98.0077L-686.843 -135.191ZM-686.521 17.9427L-703.791 -19.2831L-686.678 -56.5403L-669.531 -93.7972L-600.729 -93.9435L-566.155 -19.5758L-600.416 54.9802L-669.217 55.1265L-686.521 17.9427ZM-600.094 208.072L-668.895 208.219L-686.199 171.035L-703.469 133.851L-686.356 96.5941L-669.208 59.337L-600.407 59.1907L-565.833 133.558L-600.094 208.072ZM-562.905 131.447L-597.479 57.0793L-563.218 -17.4769L-494.417 -17.6232L-459.843 56.7866L-494.104 131.301L-562.905 131.447ZM-387.758 207.621L-456.592 207.767L-465.905 187.745L-491.167 133.4L-466.134 78.9469L-456.906 58.8855L-388.071 58.7392L-353.53 133.107L-387.758 207.621ZM-350.602 130.995L-385.176 56.6278L-350.916 -17.9284L-282.081 -18.0747L-256.717 36.5232L-247.506 56.3351L-256.768 76.3965L-281.767 130.849L-350.602 130.995ZM-175.455 207.169L-244.29 207.316L-278.864 132.948L-244.603 58.4341L-175.768 58.2877L-141.194 132.655L-175.455 207.169ZM-138.299 130.544L-172.84 56.1763L-138.613 -18.3798L-69.778 -18.5262L-52.5077 18.6996L-35.2038 55.8836L-52.3511 93.1407L-69.4646 130.398L-138.299 130.544ZM36.8477 206.718L-31.9871 206.864L-49.2572 169.68L-66.5275 132.497L-49.4139 95.2396L-32.3004 57.9826L36.5345 57.8362L71.1086 132.204L36.8477 206.718ZM74.0369 130.092L39.4628 55.7248L73.7235 -18.8314L142.525 -18.9777L177.099 55.4321L142.838 129.946L74.0369 130.092ZM249.15 206.266L180.349 206.413L171.037 186.391L145.775 132.045L170.808 77.5924L180.036 57.5311L248.837 57.3848L283.411 131.752L249.15 206.266ZM286.34 129.641L251.765 55.2734L286.026 -19.2828L354.827 -19.4291L364.038 0.382613L389.401 54.9807L364.369 109.391L355.141 129.495L286.34 129.641ZM461.453 205.815L392.652 205.961L369.591 156.369L358.078 131.594L392.339 57.0796L461.14 56.9333L495.714 131.301L461.453 205.815ZM498.642 129.189L464.068 54.8219L498.329 -19.7343L567.164 -19.8807L601.704 54.5292L567.477 129.043L498.642 129.189ZM673.789 205.363L604.955 205.51L570.381 131.142L604.641 56.6281L673.476 56.4818L708.05 130.849L673.789 205.363ZM710.945 128.738L676.371 54.3704L710.632 -20.1858L779.466 -20.3321L814.041 54.0777L779.78 128.592L710.945 128.738ZM886.092 204.912L817.257 205.058L807.945 185.036L782.717 130.691L807.716 76.238L816.944 56.1767L885.779 56.0303L920.353 130.398L886.092 204.912ZM923.248 128.287L888.707 53.9189L922.934 -20.6372L991.769 -20.7836L1000.98 -0.971862L1026.34 53.6262L1001.31 108.036L992.083 128.14L923.248 128.287ZM1098.39 204.46L1029.59 204.607L1006.53 155.014L995.02 130.239L1029.28 55.7251L1098.08 55.5788L1132.66 129.947L1098.39 204.46ZM1221.38 15.9907L1238.65 53.1747L1221.53 90.4317L1204.39 127.689L1135.58 127.835L1101.01 53.4674L1135.27 -21.0888L1204.07 -21.2351L1221.38 15.9907ZM1221.05 -137.143L1238.32 -99.9596L1221.21 -62.7026L1204.06 -25.4454L1135.26 -25.2991L1100.69 -99.6669L1134.95 -174.181L1203.75 -174.327L1221.05 -137.143ZM1220.73 -290.235L1238 -253.052L1220.89 -215.795L1203.74 -178.538L1134.94 -178.391L1100.37 -252.759L1134.63 -327.273L1203.43 -327.419L1220.73 -290.235ZM1220.41 -443.37L1237.68 -406.144L1220.57 -368.887L1203.42 -331.63L1134.62 -331.483L1100.04 -405.851L1134.3 -480.407L1203.11 -480.553L1220.41 -443.37ZM1220.09 -596.462L1237.36 -559.278L1220.24 -522.021L1203.1 -484.764L1134.3 -484.618L1099.72 -558.985L1133.98 -633.499L1202.78 -633.646L1220.09 -596.462ZM1219.76 -749.554L1237.04 -712.37L1219.92 -675.113L1202.77 -637.856L1133.97 -637.71L1099.4 -712.077L1133.66 -786.591L1202.46 -786.738L1219.76 -749.554ZM1219.44 -902.688L1236.71 -865.504L1219.6 -828.205L1202.45 -790.948L1133.65 -790.802L1099.08 -865.212L1133.34 -939.726L1202.14 -939.872L1219.44 -902.688ZM1219.12 -1055.78L1236.39 -1018.6L1219.28 -981.339L1202.13 -944.082L1133.33 -943.936L1098.75 -1018.3L1133.02 -1092.82L1201.82 -1092.96L1219.12 -1055.78ZM1218.8 -1208.87L1236.07 -1171.69L1218.95 -1134.43L1201.81 -1097.17L1133.01 -1097.03L1098.43 -1171.4L1132.69 -1245.91L1201.49 -1246.06L1218.8 -1208.87ZM1218.48 -1362.01L1235.75 -1324.82L1218.63 -1287.57L1201.49 -1250.27L1132.68 -1250.12L1098.11 -1324.53L1132.37 -1399.04L1201.17 -1399.19L1218.48 -1362.01Z" fill="url(#paint1_linear_25_18)"/>
</g>
<defs>
<linearGradient id="paint0_linear_25_18" x1="332.733" y1="218.7" x2="343.66" y2="-199.236" gradientUnits="userSpaceOnUse">
<stop stop-opacity="0.15"/>
<stop offset="1" stop-color="white"/>
</linearGradient>
<linearGradient id="paint1_linear_25_18" x1="264.304" y1="218.7" x2="275.231" y2="-199.236" gradientUnits="userSpaceOnUse">
<stop stop-opacity="0.15"/>
<stop offset="1" stop-color="white"/>
</linearGradient>
<clipPath id="clip0_25_18">
<rect width="1280" height="397" fill="white"/>
</clipPath>
</defs>
</svg>
